<!-- Generated by IcoMoon.io -->
<svg version="1.1" xmlns="http://www.w3.org/2000/svg" width="32" height="32" viewBox="0 0 32 32" fill="white">
<title>Iconos-app-codere-Expand_icon-burger</title>
<path d="M4.64 4.533h22.72c1.333 0 2.4 1.013 2.4 2.267v0c0 1.253-1.067 2.267-2.4 2.267h-22.72c-1.333 0-2.4-1.013-2.4-2.267v0c0-1.253 1.067-2.267 2.4-2.267z"></path>
<path d="M4.64 13.867h22.72c1.333 0 2.4 1.013 2.4 2.267v0c0 1.253-1.067 2.267-2.4 2.267h-22.72c-1.333 0-2.4-1.013-2.4-2.267v0c0-1.253 1.067-2.267 2.4-2.267z"></path>
<path d="M4.64 23.2h17.387c1.333 0 2.4 1.013 2.4 2.267v0c0 1.253-1.067 2.267-2.4 2.267h-17.387c-1.333 0-2.4-1.013-2.4-2.267v0c0-1.253 1.067-2.267 2.4-2.267z"></path>
</svg>
