<svg id="Omni1" xmlns="http://www.w3.org/2000/svg" width="27.352" height="36" viewBox="0 0 27.352 36">
  <path id="Path_28" data-name="Path 28" d="M95.273,36.167a1.93,1.93,0,0,1-1.656,1.046,2.264,2.264,0,0,1-2.265-2.356,2.211,2.211,0,0,1,2.174-2.367,1.842,1.842,0,0,1,1.737,1.1l.03.061h2.387l-.051-.163a4.286,4.286,0,0,0-4.1-2.986,4.356,4.356,0,0,0-3.006,1.229,4.309,4.309,0,0,0-1.32,3.108,4.38,4.38,0,0,0,4.347,4.388A4.223,4.223,0,0,0,97.63,36.3l.061-.173H95.3Z" transform="translate(-79.878 -27.488)" fill="#fff"/>
  <path id="Path_31" data-name="Path 31" d="M8.251,13.887c-.425-.963-.849-1.864-1.222-2.786a11.035,11.035,0,0,1-.57-1.8,7.164,7.164,0,0,1,5.272-8.2,7.273,7.273,0,0,1,9.115,6.992,9.374,9.374,0,0,1-.932,3.574c-.311.735-.663,1.45-1.015,2.227h6.329c.621,0,.777.124.88.735.4,2.382.818,4.754,1.191,7.147a5.922,5.922,0,0,1,0,1.657,2.407,2.407,0,0,1-1.533,2.03.439.439,0,0,0-.3.487c.01,3.335,0,6.671,0,10.006,0,.715-.176.9-.891.9H2.792c-.725,0-.9-.176-.9-.922V25.965a.469.469,0,0,0-.321-.518A2.525,2.525,0,0,1,.016,23.1,19.964,19.964,0,0,1,.5,19.025c.228-1.492.5-2.983.746-4.464.093-.518.269-.663.818-.673H8.251ZM24.182,35.6V25.685a2.812,2.812,0,0,1-1.833-.891,3.076,3.076,0,0,1-4.33.021,3.138,3.138,0,0,1-4.371.01,2.86,2.86,0,0,1-2.144.88,2.922,2.922,0,0,1-2.186-.891,2.84,2.84,0,0,1-2.186.891,2.842,2.842,0,0,1-2.155-.9,2.778,2.778,0,0,1-1.833.9v9.9H8.707V29.031c0-.663.2-.849.849-.849h8.224c.663,0,.849.2.849.849v6.577h5.552ZM13.565,2.089A5.948,5.948,0,0,0,7.9,9.9a40.983,40.983,0,0,0,5.086,9.24c.352.5.87.445,1.243-.073a42.634,42.634,0,0,0,4.558-7.955A7.842,7.842,0,0,0,19.6,8.066a6.032,6.032,0,0,0-6.039-5.977m3.812,27.335h-7.4v6.153h7.4V29.425Zm-8.7-14.263H5.62v6.153H8.676Zm9.985-.021v6.153h3.076V15.141Zm-1.284,1.471c-.735,1.1-1.409,2.144-2.134,3.17a1.944,1.944,0,0,1-3.315.021c-.352-.476-.684-.974-1.015-1.471-.311-.466-.611-.943-.943-1.461v4.444h7.4v-4.7Zm-13.041,4.7V15.151H2.4c-.342,2.061-.684,4.1-1.025,6.163Zm21.628,0c-.352-2.082-.684-4.123-1.025-6.174H23v6.174ZM1.28,22.588a1.46,1.46,0,0,0,.673,1.668A1.766,1.766,0,0,0,3.8,24.173a1.48,1.48,0,0,0,.539-1.585Zm4.35,0A1.452,1.452,0,0,0,6.3,24.256a1.765,1.765,0,0,0,1.844-.073A1.463,1.463,0,0,0,8.686,22.6H5.63Zm4.34,0a1.467,1.467,0,0,0,.621,1.637,1.763,1.763,0,0,0,1.844-.021,1.463,1.463,0,0,0,.59-1.616Zm4.34,0c-.083.715.01,1.336.673,1.668a1.744,1.744,0,0,0,1.844-.083,1.463,1.463,0,0,0,.539-1.585Zm4.35,0c-.083.849.093,1.367.621,1.647a1.786,1.786,0,0,0,1.844-.031,1.47,1.47,0,0,0,.58-1.606H18.661Zm4.34,0a1.467,1.467,0,0,0,.621,1.637,1.786,1.786,0,0,0,1.844-.021,1.479,1.479,0,0,0,.59-1.616Z" transform="translate(-0.007 -0.851)" fill="#fff"/>
</svg>
