<?xml version="1.0" encoding="utf-8"?>
<!-- Generator: Adobe Illustrator 28.0.0, SVG Export Plug-In . SVG Version: 6.00 Build 0)  -->
<svg version="1.1" id="Layer_1" xmlns="http://www.w3.org/2000/svg" xmlns:xlink="http://www.w3.org/1999/xlink" x="0px" y="0px"
	 viewBox="0 0 150.2 149.4" style="enable-background:new 0 0 150.2 149.4;" xml:space="preserve">
<style type="text/css">
	.st0{fill:#FFFFFF;}
</style>
<g>
	<path class="st0" d="M136.9,137.9l0-0.1c-1.7-4.9-2.9-10.1-3.5-15.2c8.7-8.9,13.5-20.2,13.5-32c0-16-8.9-31-23.8-40.2l-2.1-1.3
		l0.6,2.4c0.8,3,1.2,6,1.3,9.1l0,0.5l0.4,0.3C132.6,69,138,79.7,138,90.6c0,9.5-4,18.8-11.2,26.1c-1.7,1.7-2.5,4-2.3,6.3
		c0.4,4.1,1.2,8.3,2.3,12.3c-8.5-2.1-13.8-4.4-16.2-5.7c-1.7-0.9-3.7-1.1-5.6-0.6c-4.6,1.2-9.3,1.8-14.1,1.8
		c-17.4,0-33.4-8.2-41.6-21.4l-0.4-0.7l-0.8,0.3c-2,0.8-4.2,1.6-6.5,2.3l-1.2,0.4l0.6,1.1c9.6,16.6,28.7,26.9,49.9,26.9
		c0,0,0.1,0,0.1,0c5.4,0,10.7-0.7,15.9-2c3.7,1.8,11.4,5.1,23.7,7.5l0.1,0c1.6,0.3,3.2,0.6,4.8,0.9c0.1,0,0.3,0,0.4,0
		c0.8,0,1.6-0.4,2.1-1.1c0.6-0.8,0.8-1.9,0.4-2.8C137.9,140.8,137.4,139.4,136.9,137.9z"/>
	<circle class="st0" cx="59.3" cy="52.4" r="7.9"/>
	<circle class="st0" cx="86.8" cy="52.4" r="7.9"/>
	<circle class="st0" cx="31.8" cy="52.4" r="7.9"/>
	<path class="st0" d="M59.2,101.5C59.3,101.5,59.3,101.5,59.2,101.5c31,0,56.1-22,56.1-49.1S90.2,3.3,59.3,3.3s-56,22-56,49.1
		c0,11.8,4.8,23.1,13.5,32c-0.6,5.2-1.8,10.3-3.5,15.3c-0.5,1.4-1.1,2.9-1.7,4.3c-0.4,0.9-0.3,2,0.4,2.8c0.5,0.7,1.3,1.1,2.1,1.1
		c0.1,0,0.3,0,0.4,0c1.6-0.3,3.2-0.6,4.8-0.9l0.1,0c12.3-2.4,20.1-5.7,23.8-7.5C48.5,100.8,53.9,101.5,59.2,101.5z M25.7,84.8
		L25.7,84.8c0.2-2.3-0.6-4.6-2.3-6.3c-7.2-7.3-11.2-16.5-11.2-26.1c0-22.2,21.1-40.2,47.1-40.2s47.1,18,47.1,40.2
		S85.3,92.6,59.3,92.6c0,0-0.1,0-0.1,0c-4.7,0-9.4-0.6-14-1.8c-1.9-0.5-3.9-0.3-5.6,0.6c-2.4,1.2-7.7,3.6-16.2,5.7
		C24.5,93,25.3,88.9,25.7,84.8z"/>
</g>
</svg>
