<?xml version="1.0" encoding="utf-8"?>
<!-- Generator: Adobe Illustrator 28.0.0, SVG Export Plug-In . SVG Version: 6.00 Build 0)  -->
<svg version="1.1" id="Layer_1" xmlns="http://www.w3.org/2000/svg" xmlns:xlink="http://www.w3.org/1999/xlink" x="0px" y="0px"
	 viewBox="0 0 150 150" style="enable-background:new 0 0 150 150;" xml:space="preserve">
<style type="text/css">
	.st0{fill:#FFFFFF;}
</style>
<path class="st0" d="M75,8.1c-36.9,0-67,30.1-67,67c0,16.1,5.8,31.7,16.4,43.9c10.5,12,24.9,20,40.6,22.3l4.6,0.7V87.8H54v-8.6h15.6
	v-15c0-7.8,1.8-13.6,5.2-17.2c3.3-3.4,8.1-5.1,14.8-5.1c4.8,0,7,0.2,8.9,0.5v6.8h-6.3c-4.2,0-8.1,2.3-10.2,5.9
	c-1.7,2.9-2.5,6.5-2.5,11.1v13.1h18.2l-1.3,8.6H79.5V142l4.5-0.6c33-4.5,57.9-33,57.9-66.3C142,38.2,111.9,8.1,75,8.1z M107.1,71.2
	H87.5v-5.1c0-2.9,0.5-5.6,1.4-7.1c0.8-1.4,1.4-1.9,3.3-1.9h14.3V35.3l-3.5-0.5c-1.8-0.2-6-0.8-13.4-0.8c-8.9,0-15.8,2.5-20.6,7.5
	c-4.9,5.1-7.5,12.8-7.5,22.7v7H46v24.6h15.6v36.5c-26.5-6.2-45.6-30-45.6-57.2c0-32.5,26.5-59,59-59c32.5,0,59,26.5,59,59
	c0,27.6-19.5,51.5-46.5,57.4V95.8h15.7L107.1,71.2z"/>
</svg>
