<?xml version="1.0" encoding="utf-8"?>
<!-- Generator: Adobe Illustrator 28.0.0, SVG Export Plug-In . SVG Version: 6.00 Build 0)  -->
<svg version="1.1" id="Layer_1" xmlns="http://www.w3.org/2000/svg" xmlns:xlink="http://www.w3.org/1999/xlink" x="0px" y="0px"
	 viewBox="0 0 150 150" style="enable-background:new 0 0 150 150;" xml:space="preserve">
<g>
	<path d="M102,7.5H48C25.7,7.5,7.5,25.7,7.5,48v54c0,22.3,18.2,40.5,40.5,40.5h54c22.3,0,40.5-18.2,40.5-40.5V48
		C142.5,25.7,124.3,7.5,102,7.5z M102,133.5H48c-17.4,0-31.5-14.1-31.5-31.5V48c0-17.4,14.1-31.5,31.5-31.5h54
		c17.4,0,31.5,14.1,31.5,31.5v54C133.5,119.4,119.4,133.5,102,133.5z"/>
	<path d="M75,40.5C56,40.5,40.5,56,40.5,75S56,109.5,75,109.5S109.5,94,109.5,75S94,40.5,75,40.5z M75,100.5
		c-14.1,0-25.5-11.4-25.5-25.5S60.9,49.5,75,49.5s25.5,11.4,25.5,25.5S89.1,100.5,75,100.5z"/>
	<circle cx="111" cy="39" r="7.5"/>
</g>
</svg>
