<?xml version="1.0" encoding="utf-8"?>
<!-- Generator: Adobe Illustrator 28.0.0, SVG Export Plug-In . SVG Version: 6.00 Build 0)  -->
<svg version="1.1" id="Layer_1" xmlns="http://www.w3.org/2000/svg" xmlns:xlink="http://www.w3.org/1999/xlink" x="0px" y="0px"
	 viewBox="0 0 800 800" style="enable-background:new 0 0 800 800;" xml:space="preserve">
<style type="text/css">
	.st0{fill-rule:evenodd;clip-rule:evenodd;fill:#FFFFFF;}
</style>
<path class="st0" d="M316.5,237.7c-10.3-5.9-23-5.9-33.3,0.1c-10.3,6-16.6,16.9-16.6,28.8v266.7c0,11.9,6.3,22.9,16.6,28.8
	c10.3,6,23,6,33.3,0.1l233.3-133.3c10.4-5.9,16.8-17,16.8-28.9c0-12-6.4-23-16.8-28.9L316.5,237.7z M496.9,400L318.5,501.9V298.1
	L496.9,400z"/>
<path class="st0" d="M0,400c0-125,0-187.5,31.8-231.3c10.3-14.1,22.7-26.6,36.9-36.9C112.5,100,175,100,300,100h200
	c125,0,187.5,0,231.3,31.8c14.1,10.3,26.6,22.7,36.9,36.9C800,212.5,800,275,800,400c0,125,0,187.5-31.8,231.3
	c-10.3,14.2-22.7,26.6-36.9,36.9C687.5,700,625,700,500,700H300c-125,0-187.5,0-231.3-31.8c-14.1-10.3-26.6-22.7-36.9-36.9
	C0,587.5,0,525,0,400z M646.3,163.2c32,3.5,45.9,9.5,54.8,16c8.7,6.4,16.4,14.1,22.8,22.8c6.5,8.9,12.5,22.8,16,54.8
	c3.6,33.3,3.6,253.1,0,286.4c-3.5,32-9.5,45.9-16,54.8c-6.4,8.7-14.1,16.4-22.8,22.8c-8.9,6.5-22.8,12.5-54.8,16
	c-33.3,3.6-459.3,3.6-492.6,0c-32-3.5-45.9-9.5-54.8-16c-8.8-6.4-16.4-14.1-22.8-22.8c-6.5-8.9-12.5-22.8-16-54.8
	c-3.6-33.3-3.6-253.1,0-286.4c3.5-32,9.5-45.9,16-54.8c6.4-8.8,14.1-16.4,22.8-22.8c8.9-6.5,22.8-12.5,54.8-16
	C187,159.6,613,159.6,646.3,163.2z"/>
</svg>
