<!-- Generated by IcoMoon.io -->
<svg version="1.1" xmlns="http://www.w3.org/2000/svg" width="32" height="32" viewBox="0 0 32 32">
<title>Iconos-app-codere-Expand_icon-cardSaldo</title>
<path d="M13.192 24h-10.451c-0.295 0-0.533-0.239-0.533-0.533v0-9.755c0.061 0 0.123 0 0.184 0h26.992c0.101-0 0.2-0.008 0.297-0.023l-0.011 0.001v2.643c0 0.589 0.478 1.067 1.067 1.067s1.067-0.478 1.067-1.067v0-8.867c0-1.473-1.194-2.667-2.667-2.667v0h-26.4c-1.473 0-2.667 1.194-2.667 2.667v0 16c0 1.473 1.194 2.667 2.667 2.667v0h10.456c0.589 0 1.067-0.478 1.067-1.067s-0.478-1.067-1.067-1.067v0zM2.741 6.933h26.4c0.295 0 0.533 0.239 0.533 0.533v0 2c-0.085-0.013-0.184-0.021-0.285-0.021h-26.99q-0.093 0-0.184 0v-1.979c0-0 0-0 0-0 0-0.292 0.234-0.529 0.525-0.533h0z"></path>
<path d="M12.051 17.144c0-0.442-0.358-0.8-0.8-0.8v0h-6.184c-0.442 0-0.8 0.358-0.8 0.8s0.358 0.8 0.8 0.8v0h6.184c0.442 0 0.8-0.358 0.8-0.8v0z"></path>
<path d="M4.925 19.936c-0.442 0-0.8 0.358-0.8 0.8s0.358 0.8 0.8 0.8v0h5.125c0.442 0 0.8-0.358 0.8-0.8s-0.358-0.8-0.8-0.8v0z"></path>
<path d="M23.467 15.008c-0.003 0-0.007 0-0.011 0-4.666 0-8.448 3.782-8.448 8.448s3.782 8.448 8.448 8.448c4.662 0 8.442-3.776 8.448-8.437v-0.001c0-0.002 0-0.003 0-0.005 0-4.663-3.776-8.444-8.436-8.453h-0.001zM23.467 30.301c-0.003 0-0.007 0-0.011 0-3.782 0-6.848-3.066-6.848-6.848s3.066-6.848 6.848-6.848c3.782 0 6.848 3.066 6.848 6.848 0 0.005 0 0.009 0 0.014v-0.001c-0.011 3.771-3.066 6.826-6.836 6.835h-0.001z"></path>
<path d="M23.835 20.203c0.027-0.002 0.060-0.003 0.092-0.003 0.475 0 0.897 0.227 1.164 0.578l0.003 0.004c0.185 0.275 0.322 0.6 0.389 0.949l0.003 0.016h1.563c-0.041-0.619-0.234-1.186-0.542-1.673l0.009 0.015q-0.872-1.472-2.755-1.472c-0.016-0-0.035-0-0.054-0-0.917 0-1.734 0.427-2.264 1.093l-0.005 0.006c-0.409 0.504-0.71 1.113-0.856 1.779l-0.005 0.029h-1.643l-0.267 1.213h1.736q-0.016 0.267-0.016 0.568t0.024 0.632h-1.477l-0.267 1.213h1.947c0.146 0.589 0.395 1.106 0.728 1.556l-0.008-0.012c0.55 0.75 1.429 1.232 2.419 1.232 0.040 0 0.080-0.001 0.12-0.002l-0.006 0c0.024 0.001 0.053 0.001 0.082 0.001 0.812 0 1.543-0.35 2.049-0.908l0.002-0.002c0.56-0.638 0.935-1.45 1.036-2.346l0.002-0.020h-1.552c-0.073 0.389-0.212 0.736-0.405 1.045l0.007-0.013c-0.256 0.387-0.689 0.639-1.181 0.639-0.024 0-0.047-0.001-0.070-0.002l0.003 0c-0.003 0-0.007 0-0.011 0-0.557 0-1.045-0.294-1.318-0.735l-0.004-0.007c-0.086-0.123-0.163-0.263-0.224-0.412l-0.005-0.014h1.723l0.267-1.213h-2.248c0-0.189-0.019-0.389-0.019-0.603s0-0.408 0.019-0.597h2.381l0.267-1.213h-2.4c0.066-0.192 0.144-0.356 0.236-0.511l-0.007 0.012c0.256-0.489 0.758-0.818 1.338-0.821h0z"></path>
</svg>
