<!-- Generated by IcoMoon.io -->
<svg version="1.1" xmlns="http://www.w3.org/2000/svg" width="32" height="32" viewBox="0 0 32 32">
<title>Iconos-app-codere-Expand_icon-cardPin</title>
<path d="M13.203 24.051h-10.451c-0.295 0-0.533-0.239-0.533-0.533v0-9.76h27.176c0.101-0 0.2-0.008 0.297-0.023l-0.011 0.001v2.643c0 0.589 0.478 1.067 1.067 1.067s1.067-0.478 1.067-1.067v0-8.859c0-1.473-1.194-2.667-2.667-2.667v0h-26.4c-1.473 0-2.667 1.194-2.667 2.667v0 16c0 1.473 1.194 2.667 2.667 2.667v0h10.456c0.589 0 1.067-0.478 1.067-1.067s-0.478-1.067-1.067-1.067v0zM2.752 6.984h26.4c0.295 0 0.533 0.239 0.533 0.533v0 2c-0.084-0.012-0.183-0.019-0.283-0.021l-0.002-0h-27c-0.061 0-0.123 0-0.184 0v-1.976c0.002-0.293 0.24-0.531 0.533-0.531 0.001 0 0.002 0 0.003 0h-0z"></path>
<path d="M12.061 17.187c0-0.442-0.358-0.8-0.8-0.8v0h-6.195c-0.442 0-0.8 0.358-0.8 0.8s0.358 0.8 0.8 0.8v0h6.195c0.442 0 0.8-0.358 0.8-0.8v0z"></path>
<path d="M4.936 19.981c-0.442 0-0.8 0.358-0.8 0.8s0.358 0.8 0.8 0.8v0h5.125c0.442 0 0.8-0.358 0.8-0.8s-0.358-0.8-0.8-0.8v0z"></path>
<path d="M23.467 15.051c-4.666 0-8.448 3.782-8.448 8.448s3.782 8.448 8.448 8.448c4.666 0 8.448-3.782 8.448-8.448v0c-0.005-4.664-3.784-8.443-8.448-8.448h-0zM23.467 30.344c-3.782 0-6.848-3.066-6.848-6.848s3.066-6.848 6.848-6.848c3.782 0 6.848 3.066 6.848 6.848 0 0.001 0 0.002 0 0.003v-0c-0.003 3.78-3.067 6.844-6.848 6.845h-0z"></path>
<path d="M26.043 22.069h-0.325s0 0 0-0.019v-1.6c0.001-0.023 0.001-0.050 0.001-0.077 0-1.218-0.987-2.205-2.205-2.205s-2.205 0.987-2.205 2.205c0 0.027 0 0.054 0.001 0.081l-0-0.004v1.6s0 0 0 0.019h-0.32c-0.916 0.006-1.656 0.748-1.659 1.664v3.078c0 0 0 0 0 0 0 0.92 0.745 1.665 1.664 1.667h5.048c0.92 0 1.667-0.746 1.667-1.667v0-3.077c-0.003-0.919-0.748-1.663-1.667-1.664h-0zM22.912 22.051v-1.6c-0.001-0.012-0.001-0.026-0.001-0.040 0-0.334 0.271-0.605 0.605-0.605s0.605 0.271 0.605 0.605c0 0.014-0 0.028-0.001 0.042l0-0.002v1.616h-1.208zM25.579 26.347h-4.115v-2.133h4.112z"></path>
</svg>
