<!-- Generated by IcoMoon.io -->
<svg version="1.1" xmlns="http://www.w3.org/2000/svg" width="32" height="32" viewBox="0 0 32 32">
<title>Iconos-app-codere_Icon-VirtualSports</title>
<path d="M16 19.147l-7.387-12.853h2.827l4.56 8.053 4.56-8.053h2.827l-7.387 12.853z"></path>
<path d="M16 2.133c7.653 0 13.867 6.213 13.867 13.867s-6.213 13.867-13.867 13.867-13.867-6.213-13.867-13.867 6.213-13.867 13.867-13.867zM16 0c-8.827 0-16 7.173-16 16s7.173 16 16 16 16-7.173 16-16-7.173-16-16-16z"></path>
<path d="M6.8 23.28c0 0.613 1.28 0.747 1.28 0.16-0.24-0.853-2.533-0.453-2.373-1.893-0.16-1.787 3.6-1.68 3.52-0.027h-1.2c0.080-0.453-1.040-0.72-1.067-0.133 0.373 0.8 2.507 0.4 2.4 1.893 0.187 1.787-3.84 1.787-3.787-0.027h1.227z"></path>
<path d="M9.947 20.32h1.973c2.667 0.213 1.867 3.253-0.747 2.773v1.493h-1.227v-4.267zM11.173 22.213c0.4 0 1.147 0.080 1.12-0.507 0.027-0.613-0.693-0.507-1.12-0.507v1.013z"></path>
<path d="M18.347 22.453c0.187 2.907-4.507 2.96-4.32 0-0.24-2.827 4.533-2.987 4.32 0zM15.307 22.427c-0.16 1.76 1.92 1.733 1.76 0.027 0.16-1.707-1.893-1.787-1.76-0.027z"></path>
<path d="M20.267 22.96v1.627h-1.227v-4.267h2.133c1.6-0.133 1.947 1.733 0.853 2.187 0.64 0.053 0.533 1.52 0.613 2.080h-1.2c-0.293-0.8 0.373-1.813-1.173-1.627zM20.267 22.107c0.4 0 1.227 0.080 1.147-0.453 0.053-0.56-0.773-0.453-1.147-0.453v0.907z"></path>
<path d="M24.267 21.227h-1.227v-0.933h3.68v0.933h-1.2v3.36h-1.253v-3.36z"></path>
</svg>
