<!-- Generated by IcoMoon.io -->
<svg version="1.1" xmlns="http://www.w3.org/2000/svg" width="32" height="32" viewBox="0 0 32 32">
<title>Iconos-app-codere-Expand_icon-Billiard_Balls_Colored</title>
<path d="M16 0c-8.837 0-16 7.163-16 16s7.163 16 16 16c8.837 0 16-7.163 16-16v0c-0.011-8.832-7.168-15.989-15.999-16h-0.001zM16 2.133c0.001 0 0.002 0 0.003 0 3.998 0 7.599 1.697 10.122 4.41l0.008 0.008h-20.267c2.531-2.722 6.133-4.419 10.13-4.419 0.001 0 0.002 0 0.003 0h-0zM4.227 8.685h23.547c1.314 2.077 2.093 4.605 2.093 7.315s-0.78 5.238-2.127 7.372l0.034-0.057h-23.547c-1.314-2.077-2.093-4.605-2.093-7.315s0.78-5.238 2.127-7.372l-0.034 0.057zM16 29.867c-0.001 0-0.002 0-0.003 0-3.998 0-7.599-1.697-10.122-4.41l-0.008-0.009h20.267c-2.531 2.722-6.133 4.419-10.13 4.419-0.001 0-0.002 0-0.003 0h0z"></path>
<path d="M16 22.667c0.001 0 0.002 0 0.003 0 3.641 0 6.592-2.951 6.592-6.592s-2.951-6.592-6.592-6.592c-3.641 0-6.592 2.951-6.592 6.592 0 0.004 0 0.008 0 0.011v-0.001c0.009 3.634 2.955 6.577 6.589 6.581h0zM16 11.093c0.001 0 0.002 0 0.003 0 2.757 0 4.992 2.235 4.992 4.992s-2.235 4.992-4.992 4.992c-2.757 0-4.992-2.235-4.992-4.992v0c0.003-2.755 2.235-4.987 4.989-4.992h0z"></path>
<path d="M15.253 16.619q-0.989 0.704-1.253 1.333c-0.179 0.365-0.286 0.793-0.293 1.246l-0 0.002h4.325v-1.093h-2.757c0.081-0.133 0.178-0.246 0.289-0.342l0.002-0.002c0.115-0.099 0.328-0.267 0.637-0.48l0.499-0.352c0.345-0.228 0.642-0.492 0.896-0.794l0.005-0.006c0.263-0.334 0.421-0.76 0.421-1.223 0-0.008-0-0.015-0-0.023v0.001c0.001-0.024 0.002-0.052 0.002-0.080 0-0.547-0.229-1.040-0.596-1.389l-0.001-0.001c-0.392-0.348-0.911-0.561-1.48-0.561-0.042 0-0.084 0.001-0.126 0.003l0.006-0q-1.269 0-1.765 0.947c-0.184 0.381-0.292 0.828-0.293 1.301v0.001h1.208c-0-0.008-0-0.016-0-0.025 0-0.27 0.051-0.528 0.144-0.765l-0.005 0.014c0.162-0.261 0.448-0.433 0.773-0.433 0.251 0 0.479 0.102 0.643 0.267l0 0c0.14 0.171 0.225 0.392 0.225 0.632 0 0.012-0 0.024-0.001 0.036l0-0.002c-0.009 0.354-0.159 0.672-0.394 0.901l-0 0c-0.333 0.31-0.695 0.601-1.077 0.865l-0.032 0.021z"></path>
</svg>
