<!-- Generated by IcoMoon.io -->
<svg version="1.1" xmlns="http://www.w3.org/2000/svg" width="32" height="32" viewBox="0 0 32 32">
<title>Iconos-app-codere-Expand_icon-charge-chat</title>
<path d="M15.355 29.819h-10.576c-1.401-0.002-2.537-1.137-2.539-2.539v-3.296h11.549c0.442 0 0.8-0.358 0.8-0.8s-0.358-0.8-0.8-0.8v0h-11.549v-15.717h16.667v6.621c0 0.589 0.478 1.067 1.067 1.067s1.067-0.478 1.067-1.067v0-10.088c0-0.001 0-0.002 0-0.003 0-1.786-1.447-3.233-3.232-3.235h-14.472c-1.784 0.002-3.229 1.448-3.229 3.232 0 0.002 0 0.004 0 0.006v-0 24.080c0.003 2.579 2.093 4.669 4.672 4.672h10.576c0.589 0 1.067-0.478 1.067-1.067s-0.478-1.067-1.067-1.067v0zM3.336 2.096h14.472c0 0 0 0 0 0 0.607 0 1.099 0.492 1.099 1.099 0 0.002 0 0.004 0 0.006v-0 1.867h-16.667v-1.867c0-0.002 0-0.003 0-0.005 0-0.606 0.49-1.097 1.096-1.099h0z"></path>
<path d="M9.277 26.805c0 0.71 0.575 1.285 1.285 1.285s1.285-0.575 1.285-1.285c0-0.71-0.575-1.285-1.285-1.285v0c-0.71 0-1.285 0.575-1.285 1.285v0z"></path>
<path d="M29.197 15.061h-10.933c-0.015-0-0.033-0-0.051-0-1.513 0-2.743 1.216-2.765 2.724l-0 0.002v8.992c0.022 1.51 1.252 2.726 2.765 2.726 0.013 0 0.026-0 0.040-0l-0.002 0h9.133l2.16 2.16v-2.181c1.375-0.155 2.437-1.303 2.456-2.702l0-0.002v-8.992c-0.022-1.51-1.252-2.726-2.765-2.726-0.013 0-0.026 0-0.040 0l0.002-0zM30.4 26.779c-0.022 0.626-0.535 1.126-1.165 1.126-0.013 0-0.027-0-0.040-0.001l0.002 0h-10.933c-0.011 0-0.025 0.001-0.038 0.001-0.63 0-1.143-0.5-1.165-1.124l-0-0.002v-8.992c0.022-0.626 0.535-1.126 1.165-1.126 0.013 0 0.027 0 0.040 0.001l-0.002-0h10.947c0.007-0 0.016-0 0.025-0 0.63 0 1.143 0.499 1.165 1.124l0 0.002z"></path>
<path d="M20.643 21.6c-0.468 0-0.848 0.38-0.848 0.848s0.38 0.848 0.848 0.848c0.468 0 0.848-0.38 0.848-0.848 0-0.001 0-0.002 0-0.003v0c-0.002-0.467-0.381-0.845-0.848-0.845 0 0 0 0 0 0v0z"></path>
<path d="M23.589 21.6c-0.468 0-0.848 0.38-0.848 0.848s0.38 0.848 0.848 0.848c0.468 0 0.848-0.38 0.848-0.848 0-0.001 0-0.002 0-0.003v0c0 0 0 0 0 0 0-0.467-0.378-0.845-0.845-0.845-0.001 0-0.002 0-0.003 0h0z"></path>
<path d="M26.539 21.6c-0.001 0-0.002 0-0.003 0-0.468 0-0.848 0.38-0.848 0.848s0.38 0.848 0.848 0.848c0.468 0 0.848-0.38 0.848-0.848 0-0.001 0-0.002 0-0.003v0c0-0.467-0.378-0.845-0.845-0.845v0z"></path>
</svg>
