<?xml version="1.0" encoding="utf-8"?>
<!-- Generator: Adobe Illustrator 26.2.1, SVG Export Plug-In . SVG Version: 6.00 Build 0)  -->
<svg version="1.1" id="Layer_1" xmlns="http://www.w3.org/2000/svg" xmlns:xlink="http://www.w3.org/1999/xlink" x="0px" y="0px"
	 viewBox="0 0 32 32" style="enable-background:new 0 0 32 32;" xml:space="preserve">
<style type="text/css">
	.st0{stroke:#000000;stroke-miterlimit:10;}
</style>
<path d="M16,2.1c7.7,0,13.9,6.2,13.9,13.9S23.7,29.9,16,29.9S2.1,23.7,2.1,16S8.3,2.1,16,2.1z M16,0C7.2,0,0,7.2,0,16s7.2,16,16,16
	s16-7.2,16-16S24.8,0,16,0z"/>
<path class="st0" d="M16,4.5c-0.2,0-0.4,0.2-0.4,0.4s0.2,0.4,0.4,0.4c0.2,0,0.4-0.2,0.4-0.4S16.2,4.5,16,4.5z M11.8,5.4
	c-0.1,0-0.1,0-0.2,0c-0.2,0.1-0.3,0.3-0.2,0.5c0.1,0.2,0.3,0.3,0.5,0.2c0.2-0.1,0.3-0.3,0.2-0.5C12.1,5.5,11.9,5.4,11.8,5.4z
	 M20.2,5.4c-0.2,0-0.3,0.1-0.4,0.3c-0.1,0.2,0,0.4,0.2,0.5c0.2,0.1,0.4,0,0.5-0.2c0.1-0.2,0-0.4-0.2-0.5C20.3,5.4,20.3,5.4,20.2,5.4
	z M8.2,7.8c-0.1,0-0.2,0-0.3,0.1C7.7,8,7.7,8.3,7.9,8.5c0.2,0.2,0.4,0.2,0.6,0c0.2-0.2,0.2-0.4,0-0.6C8.4,7.8,8.3,7.8,8.2,7.8z
	 M23.8,7.8c-0.1,0-0.2,0-0.3,0.1c-0.2,0.2-0.2,0.4,0,0.6c0.2,0.2,0.4,0.2,0.6,0c0.2-0.2,0.2-0.4,0-0.6C24,7.8,23.9,7.8,23.8,7.8z
	 M26.2,11.4c-0.1,0-0.1,0-0.2,0c-0.2,0.1-0.3,0.3-0.2,0.5c0.1,0.2,0.3,0.3,0.5,0.2c0.2-0.1,0.3-0.3,0.2-0.5
	C26.5,11.5,26.4,11.4,26.2,11.4z M5.8,11.4c-0.2,0-0.3,0.1-0.4,0.3c-0.1,0.2,0,0.4,0.2,0.5c0.2,0.1,0.4,0,0.5-0.2
	c0.1-0.2,0-0.4-0.2-0.5C5.9,11.4,5.8,11.4,5.8,11.4z M4.9,15.6c-0.2,0-0.4,0.2-0.4,0.4c0,0.2,0.2,0.4,0.4,0.4s0.4-0.2,0.4-0.4
	C5.3,15.8,5.2,15.6,4.9,15.6z M27.1,15.6c-0.2,0-0.4,0.2-0.4,0.4c0,0.2,0.2,0.4,0.4,0.4s0.4-0.2,0.4-0.4
	C27.5,15.8,27.3,15.6,27.1,15.6z M26.2,19.8c-0.2,0-0.3,0.1-0.4,0.3c-0.1,0.2,0,0.4,0.2,0.5c0.2,0.1,0.4,0,0.5-0.2
	c0.1-0.2,0-0.4-0.2-0.5C26.3,19.8,26.3,19.8,26.2,19.8z M5.8,19.8c-0.1,0-0.1,0-0.2,0c-0.1,0-0.2,0.1-0.2,0.2c0,0.1,0,0.2,0,0.3
	c0.1,0.2,0.3,0.3,0.5,0.2c0.1,0,0.2-0.1,0.2-0.2c0-0.1,0-0.2,0-0.3C6.1,19.9,5.9,19.8,5.8,19.8z M8.2,23.4c-0.1,0-0.2,0-0.3,0.1
	c-0.2,0.2-0.2,0.4,0,0.6c0.2,0.2,0.4,0.2,0.6,0c0.2-0.2,0.2-0.4,0-0.6C8.4,23.5,8.3,23.4,8.2,23.4z M23.8,23.4c-0.1,0-0.2,0-0.3,0.1
	c-0.2,0.2-0.2,0.4,0,0.6c0.2,0.2,0.4,0.2,0.6,0c0.2-0.2,0.2-0.4,0-0.6C24,23.5,23.9,23.4,23.8,23.4z M11.8,25.8
	c-0.2,0-0.3,0.1-0.4,0.3c-0.1,0.2,0,0.4,0.2,0.5c0.2,0.1,0.4,0,0.5-0.2c0.1-0.2,0-0.4-0.2-0.5C11.9,25.8,11.8,25.8,11.8,25.8z
	 M20.2,25.8c-0.1,0-0.1,0-0.2,0c-0.1,0-0.2,0.1-0.2,0.2c0,0.1,0,0.2,0,0.3c0.1,0.2,0.3,0.3,0.5,0.2c0.1,0,0.2-0.1,0.2-0.2
	c0-0.1,0-0.2,0-0.3C20.6,25.9,20.4,25.8,20.2,25.8z M16,26.7c-0.2,0-0.4,0.2-0.4,0.4s0.2,0.4,0.4,0.4c0.2,0,0.4-0.2,0.4-0.4
	S16.2,26.7,16,26.7z"/>
<g>
	<g>
		<path d="M13.7,22.5v2.3h1.8v-2.3 M15.5,9.6V7.2h-1.8v2.4"/>
		<path d="M16.6,22.5v2.3h1.8v-2.3 M18.4,9.6V7.2h-1.8v2.4"/>
	</g>
</g>
</svg>
