<!-- Generated by IcoMoon.io -->
<svg version="1.1" xmlns="http://www.w3.org/2000/svg" width="32" height="32" viewBox="0 0 32 32">
<title>Iconos-app-codere-Expand_icon-badminton</title>
<path d="M31.8 13.093c-0.424-0.837-1.715-1.277-3.053-1.504 0.835-2.472 0.491-3.6 0-4.112-0.757-0.8-2.315-0.688-3.867-0.296 0.189-1.459 0.128-2.893-0.619-3.565s-2.309-0.533-3.755-0.136c-0.261-1.293-0.731-2.555-1.557-2.947-1.397-0.691-4.016 0.736-5.435 1.648-0.17 0.109-0.304 0.26-0.389 0.439l-0.003 0.006-7.861 16.725-3.451 3.451c-0.936 0.96-1.513 2.273-1.513 3.721 0 1.488 0.609 2.833 1.592 3.801l0.001 0.001c0.962 0.971 2.289 1.579 3.759 1.6l0.004 0h0.072c0.006 0 0.014 0 0.021 0 1.433 0 2.73-0.583 3.667-1.525l3.448-3.448 16.739-7.84c0.183-0.087 0.333-0.218 0.44-0.38l0.002-0.004c0.973-1.485 2.491-4.192 1.757-5.635zM19.845 5.912c0.061-0.013 0.112-0.029 0.163-0.048l-0.008 0.003c1.048-0.373 2.275-0.637 2.792-0.613 0.104 0.552-0.037 1.973-0.333 3.219-0.013 0.063-0.020 0.134-0.020 0.208 0 0.042 0.002 0.084 0.007 0.125l-0-0.005-13.043 12.923-0.413-0.413zM14.933 3.819c1.181-0.72 2.509-1.309 3.045-1.352 0.219 0.395 0.491 1.472 0.619 2.459l-10.755 15.235-0.411-0.411zM5.683 29.789c-1.798-0.030-3.244-1.495-3.244-3.298 0-0.466 0.097-0.91 0.271-1.312l-0.008 0.021 4.312 4.315c-0.377 0.174-0.817 0.275-1.281 0.275-0.017 0-0.035-0-0.052-0l0.003 0zM8.659 28.141l-4.587-4.587 2.075-2.072 4.587 4.584zM10.525 22.853l13.224-13.091c0.047-0.008 0.088-0.020 0.127-0.036l-0.004 0.002c1.235-0.451 2.667-0.763 3.261-0.723 0 0.581-0.365 1.915-0.851 3.061 0 0 0 0 0 0.016l-15.253 11.264zM28.411 17.312l-15.955 7.467-0.293-0.293 14.861-10.965c0.042 0.010 0.094 0.020 0.148 0.026l0.007 0.001c1.067 0.085 2.267 0.339 2.693 0.56-0.040 0.56-0.675 1.957-1.451 3.205z"></path>
</svg>
