<!-- Generated by IcoMoon.io -->
<svg version="1.1" xmlns="http://www.w3.org/2000/svg" width="32" height="32" viewBox="0 0 32 32">
<title>Iconos-app-codere-Expand_icon-addfriend</title>
<path d="M23.733 19.467l-0.107-0.027c-0.693-0.133-1.387-0.213-2.107-0.24-0.427 0-0.853-0.053-1.28-0.133l-0.16-0.053-0.827-1.040c1.147-1.173 2.053-2.56 2.667-4.080 0.613-0.427 1.093-1.307 1.307-2.507 0.213-1.147 0.080-2.187-0.347-2.773-0.053-0.080-0.107-0.133-0.16-0.187-0.027-0.347-0.080-0.667-0.133-0.933-0.027-0.107-0.027-0.187-0.053-0.293-0.027-0.133-0.053-0.293-0.080-0.427v-0.053c-0.133-0.933-0.293-2-0.693-2.747-1.227-2.347-3.733-3.733-6.88-3.76-3.093 0-5.6 1.387-6.827 3.733-0.4 0.747-0.56 1.813-0.693 2.747-0.027 0.16-0.053 0.32-0.080 0.48-0.027 0.107-0.027 0.187-0.053 0.293-0.053 0.293-0.107 0.613-0.133 0.933-0.053 0.053-0.107 0.133-0.16 0.187-0.427 0.587-0.56 1.627-0.347 2.773 0.213 1.2 0.693 2.080 1.307 2.507 0.533 1.333 1.307 2.587 2.267 3.68l-0.747 1.52c-0.4 0.080-0.8 0.107-1.2 0.107-0.72 0.027-1.413 0.107-2.107 0.24l-0.080 0.053c-0.827 0.16-3.333 0.64-5.040 4.533l-0.24 0.56 0.373 0.507c2.987 3.947 7.493 6.4 12.4 6.8 0.453 0.027 0.907 0.053 1.36 0.053 5.413 0 10.507-2.533 13.733-6.853l0.373-0.507-0.24-0.56c-1.653-3.893-4.187-4.373-5.013-4.533zM11.387 18.693c0.48 0.373 1.013 0.667 1.573 0.88 1.253 0.507 2.64 0.507 3.893 0 0.4-0.16 0.8-0.373 1.147-0.613l0.827 1.013c-0.24 0.347-1.6 1.067-3.947 1.067-2.48 0-3.867-0.827-3.973-1.12l-0.027-0.187 0.507-1.040zM9.173 12.667l-0.373-0.107c-0.107-0.053-0.453-0.507-0.64-1.467-0.16-0.853-0.027-1.387 0.080-1.547l0.427-0.187v-0.533c0.027-0.373 0.053-0.72 0.133-1.093 0.027-0.107 0.027-0.213 0.053-0.293 0.027-0.16 0.053-0.32 0.080-0.507 0.107-0.773 0.267-1.733 0.533-2.24 0.933-1.813 2.933-2.88 5.44-2.907 2.533 0.027 4.507 1.093 5.467 2.907 0.267 0.507 0.427 1.467 0.533 2.24v0.053c0.027 0.16 0.053 0.293 0.080 0.453 0.027 0.107 0.027 0.213 0.053 0.293 0.080 0.373 0.107 0.72 0.133 1.093v0.507l0.427 0.187c0.080 0.16 0.213 0.72 0.080 1.547-0.16 0.933-0.533 1.413-0.613 1.467l-0.373 0.107-0.16 0.4c-0.533 1.413-1.333 2.72-2.4 3.813-0.533 0.533-1.173 0.96-1.867 1.253-0.88 0.347-1.84 0.347-2.72 0-0.693-0.293-1.333-0.72-1.867-1.253-1.067-1.093-1.867-2.373-2.4-3.813l-0.107-0.373zM13.707 29.733c-4.107-0.32-7.867-2.293-10.48-5.467 1.2-2.347 2.64-2.613 3.2-2.72l0.187-0.053c0.587-0.107 1.173-0.16 1.733-0.187 0.293-0.027 0.587-0.027 0.853-0.053 0.987 1.333 3.44 1.947 5.68 1.947s4.667-0.613 5.68-1.947c0.267 0.027 0.56 0.053 0.853 0.053 0.587 0.027 1.173 0.080 1.733 0.187v0l0.187 0.053c0.56 0.107 2 0.373 3.2 2.72-3.12 3.84-7.92 5.867-12.827 5.467v0z"></path>
<path d="M20 8.747c0.453-0.027 0.773-0.4 0.747-0.853s-0.4-0.773-0.853-0.747c-5.627 0.373-9.067-2.027-9.12-2.053-0.373-0.24-0.853-0.133-1.12 0.213-0.24 0.347-0.16 0.8 0.16 1.067 0.133 0.107 3.387 2.4 8.827 2.4 0.453 0.027 0.907 0 1.36-0.027z"></path>
<path d="M23.92 7.44h2.533v2.533c0 0.453 0.347 0.8 0.8 0.8s0.8-0.347 0.8-0.8v-2.533h2.533c0.453 0 0.8-0.347 0.8-0.8s-0.347-0.8-0.8-0.8h-2.533v-2.533c0-0.453-0.347-0.8-0.8-0.8s-0.8 0.347-0.8 0.8v2.533h-2.533c-0.453 0-0.8 0.347-0.8 0.8s0.347 0.8 0.8 0.8z"></path>
</svg>
