<?xml version="1.0" encoding="utf-8"?>
<!-- Generator: Adobe Illustrator 24.3.0, SVG Export Plug-In . SVG Version: 6.00 Build 0)  -->
<svg version="1.1" id="Layer_1" xmlns="http://www.w3.org/2000/svg" xmlns:xlink="http://www.w3.org/1999/xlink" x="0px" y="0px"
	 viewBox="0 0 32 32" style="enable-background:new 0 0 32 32;" xml:space="preserve">
<path d="M31.1,13.5L31.1,13.5c0.5,0.1,0.9,0.5,0.9,1.1v11.3H0V12.4l0,0c0-0.6,0.5-1.1,1.1-1.1l0,0c0,0,0.1,0,0.1,0c0,0,0.1,0,0.1,0
	H10V7.2c0-0.5,0.4-1,0.9-1.1h10.1c0.6,0,1,0.5,1.1,1.1v6.4L31.1,13.5z M10,13.5H2.2v10.2H10V13.5z M20,8.1h-7.8v15.6H20L20,8.1z
	 M29.9,23.8v-8.2h-7.8v8.2L29.9,23.8z"/>
<g>
	<path d="M25,20v-1H26c0.6,0,1.3-0.2,1.3-0.8c0-0.4-0.3-0.8-1.3-0.8c-0.6,0-1.3,0.2-1.3,0.8h-1.2c0-1.4,1.4-1.9,2.5-1.9
		c1.2,0,2.5,0.6,2.5,1.9c0,0.5-0.3,1.1-0.9,1.2c0.6,0.2,1,0.8,1,1.3c0,1.5-1.4,2-2.7,2c-1.2,0-2.6-0.5-2.6-1.9h1.2
		c0,0.6,0.9,0.9,1.4,0.9c0.6,0,1.4-0.3,1.4-0.9c0-0.4-0.2-0.8-1.3-0.8H25z"/>
	<path d="M3.7,16.6c0-1.3,1.3-1.9,2.4-1.9c1.3,0,2.6,0.5,2.6,2c0,1.6-1.2,1.9-2.5,1.9c-0.5,0-1.4,0.1-1.4,0.8v0.5h3.9v1.1H3.6
		c0-0.5,0-1.1,0-1.7c0-1.4,1.3-1.9,2.6-1.9c0.5,0,1.4-0.1,1.4-0.8c0-0.7-0.6-1-1.4-1c-0.6,0-1.3,0.3-1.3,0.9H3.7z"/>
	<path d="M15,14.9h0.9v-4.2h-1V9.6h2.2v5.3H18v1h-3V14.9z"/>
</g>
</svg>
