<!-- Generated by IcoMoon.io -->
<svg version="1.1" xmlns="http://www.w3.org/2000/svg" width="32" height="32" viewBox="0 0 32 32">
<title>Iconos-app-codere-Expand_icon-arr-double</title>
<path d="M16.267 30.611c-0 0-0.001 0-0.001 0-0.294 0-0.561-0.119-0.754-0.312v0l-12.168-12.165c-0.547-0.546-0.885-1.3-0.885-2.133s0.338-1.588 0.885-2.133l12.168-12.165c0.197-0.23 0.488-0.376 0.813-0.376 0.589 0 1.067 0.478 1.067 1.067 0 0.322-0.143 0.611-0.369 0.807l-0.001 0.001-12.168 12.179c-0.16 0.159-0.258 0.379-0.258 0.623s0.099 0.463 0.258 0.623v0l12.168 12.176c0.187 0.192 0.302 0.455 0.302 0.744 0 0.586-0.472 1.061-1.056 1.067h-0.001z"></path>
<path d="M25.843 30.611c-0 0-0.001 0-0.001 0-0.294 0-0.561-0.119-0.754-0.312v0l-12.168-12.165c-0.547-0.546-0.885-1.3-0.885-2.133s0.338-1.588 0.885-2.133l12.168-12.165c0.184-0.156 0.425-0.251 0.687-0.251 0.589 0 1.067 0.478 1.067 1.067 0 0.261-0.093 0.499-0.249 0.685l0.001-0.002-12.168 12.179c-0.159 0.16-0.257 0.38-0.257 0.623s0.098 0.463 0.257 0.623l12.168 12.176c0.193 0.193 0.313 0.46 0.313 0.755 0 0.588-0.477 1.066-1.065 1.067h-0z"></path>
</svg>
