<!-- Generated by IcoMoon.io -->
<svg version="1.1" xmlns="http://www.w3.org/2000/svg" width="32" height="32" viewBox="0 0 32 32">
<title>Iconos-app-codere-Expand_icon-beach_volleyball</title>
<path d="M3.947 23.12c0.827 0.213 1.867 0.427 3.093 0.507-0.64-0.693-1.307-1.627-1.76-2.72 1.040 1.067 2.187 1.973 3.467 2.72 2.053-0.107 3.173-0.693 4.32-1.173 1.253-2.56 2.16-5.28 2.72-8.080 1.253-0.133 2.48-0.16 3.733-0.080-0.373 2.56-1.013 5.040-1.92 7.467 0.56 0.107 1.040 0.293 1.493 0.507 0.907-2.533 1.573-5.173 1.973-7.867 1.227 0.133 2.427 0.347 3.627 0.613-0.187 1.627-0.747 5.787-2.32 9.12 0.48 0.16 1.040 0.267 1.68 0.267 1.28 0 2.4-0.213 3.307-0.48 0.693-0.853 0.933-1.467 0.933-1.467 3.867-6.8 1.467-15.413-5.307-19.28-6.8-3.867-15.44-1.467-19.307 5.307-2.453 4.32-2.453 9.6-0.32 13.68 0 0 0.24 0.427 0.587 0.96v0zM24.027 24.373c1.493-3.333 2.053-7.2 2.24-8.96 0.56 0.16 1.12 0.347 1.707 0.533-0.133 3.227-1.547 6.267-3.947 8.427zM27.92 14.24c-6.64-2.080-11.44-1.6-12.693-1.44-0.987-0.613-1.867-1.387-2.613-2.267 2.747-0.453 8.96-1.093 14.747 1.147 0.267 0.827 0.453 1.707 0.56 2.56zM24.96 7.573l0.027-0.053c0.56 0.64 1.067 1.387 1.493 2.16-6.32-1.973-12.613-1.040-14.853-0.587-0.293-0.533-0.56-1.067-0.747-1.627 4.56-1.52 9.52-1.493 14.080 0.107zM22.107 5.147c-3.893-0.747-7.92-0.507-11.68 0.773-0.080-0.373-0.133-0.72-0.187-0.987 3.707-2.027 8.213-1.947 11.867 0.213zM8.773 5.867c0.613 3.36 2.56 6.32 5.413 8.187-0.24 1.333-0.587 2.64-1.013 3.947-5.973-2.88-6.907-7.707-7.040-9.413 0.72-1.040 1.627-1.947 2.64-2.72zM4.933 10.773c0.16 0.56 0.347 1.12 0.587 1.68 0.933 2.133 2.907 5.067 7.12 7.040-0.48 1.2-1.040 2.373-1.653 3.52-5.12-2.373-6.587-5.84-7.013-7.76 0.027-1.547 0.347-3.067 0.96-4.48z"></path>
<path d="M6.080 29.52c0 0.619-0.501 1.12-1.12 1.12s-1.12-0.501-1.12-1.12c0-0.619 0.501-1.12 1.12-1.12s1.12 0.501 1.12 1.12z"></path>
<path d="M25.067 26.373c0 0.619-0.501 1.12-1.12 1.12s-1.12-0.501-1.12-1.12c0-0.619 0.501-1.12 1.12-1.12s1.12 0.501 1.12 1.12z"></path>
<path d="M8.133 25.653c0 0.619-0.501 1.12-1.12 1.12s-1.12-0.501-1.12-1.12c0-0.619 0.501-1.12 1.12-1.12s1.12 0.501 1.12 1.12z"></path>
<path d="M10.667 29.787c0 0.619-0.501 1.12-1.12 1.12s-1.12-0.501-1.12-1.12c0-0.619 0.501-1.12 1.12-1.12s1.12 0.501 1.12 1.12z"></path>
<path d="M13.973 27.067c0 0.619-0.501 1.12-1.12 1.12s-1.12-0.501-1.12-1.12c0-0.619 0.501-1.12 1.12-1.12s1.12 0.501 1.12 1.12z"></path>
<path d="M17.040 30.053c0 0.619-0.501 1.12-1.12 1.12s-1.12-0.501-1.12-1.12c0-0.619 0.501-1.12 1.12-1.12s1.12 0.501 1.12 1.12z"></path>
<path d="M16.587 23.627c0 0.619-0.501 1.12-1.12 1.12s-1.12-0.501-1.12-1.12c0-0.619 0.501-1.12 1.12-1.12s1.12 0.501 1.12 1.12z"></path>
<path d="M28.293 29.333c0 0.619-0.501 1.12-1.12 1.12s-1.12-0.501-1.12-1.12c0-0.619 0.501-1.12 1.12-1.12s1.12 0.501 1.12 1.12z"></path>
<path d="M22.56 30.133c0 0.619-0.501 1.12-1.12 1.12s-1.12-0.501-1.12-1.12c0-0.619 0.501-1.12 1.12-1.12s1.12 0.501 1.12 1.12z"></path>
<path d="M20.080 26.4c0 0.619-0.501 1.12-1.12 1.12s-1.12-0.501-1.12-1.12c0-0.619 0.501-1.12 1.12-1.12s1.12 0.501 1.12 1.12z"></path>
<path d="M3.2 25.973c0 0.619-0.501 1.12-1.12 1.12s-1.12-0.501-1.12-1.12c0-0.619 0.501-1.12 1.12-1.12s1.12 0.501 1.12 1.12z"></path>
<path d="M31.12 26.107c0 0.619-0.501 1.12-1.12 1.12s-1.12-0.501-1.12-1.12c0-0.619 0.501-1.12 1.12-1.12s1.12 0.501 1.12 1.12z"></path>
</svg>
