<!-- Generated by IcoMoon.io -->
<svg version="1.1" xmlns="http://www.w3.org/2000/svg" width="32" height="32" viewBox="0 0 32 32">
<title>Iconos-app-codere-Expand_icon-bowls</title>
<path d="M29.653 18.445c-1.224-4.469-5.249-7.698-10.029-7.698-2.895 0-5.514 1.185-7.397 3.097l-0.001 0.001c-0.701-1.488-0.699-2.763-0.693-4.104v-0.328c-0-0.019-0.001-0.040-0.001-0.062 0-0.44 0.080-0.861 0.227-1.25l-0.008 0.024c0.195-0.629 0.467-1.493 0.552-3.539 0.059-1.333-0.299-2.421-1.067-3.243-0.764-0.774-1.803-1.275-2.958-1.343l-0.012-0.001h-0.064c-1.173 0.061-2.218 0.559-2.986 1.333l-0 0c-0.763 0.821-1.12 1.912-1.067 3.243 0.088 2.045 0.357 2.909 0.555 3.539 0.139 0.364 0.219 0.786 0.219 1.226 0 0.022-0 0.044-0.001 0.066l0-0.003v0.328c0 1.563 0 3.035-1.101 4.859-1.6 2.632-2.024 6.277-1.739 8.552 0.315 2.525 1.333 6.2 2.667 8.344l0.296 0.515h6.355l0.315-0.504c0.424-0.699 0.819-1.511 1.139-2.359l0.034-0.103c1.805 1.541 4.166 2.479 6.747 2.48h0c5.729-0.005 10.372-4.651 10.372-10.381 0-0.955-0.129-1.88-0.37-2.758l0.017 0.073zM8.221 2.133c0.533 0.035 2.040 0.315 1.952 2.36-0.075 1.765-0.267 2.419-0.459 2.992-0.114 0.323-0.208 0.705-0.263 1.099l-0.004 0.032h-2.451c-0.061-0.427-0.154-0.809-0.28-1.175l0.013 0.044c-0.181-0.573-0.384-1.227-0.459-2.992-0.085-2.048 1.432-2.325 1.949-2.36zM10.189 29.867h-3.931c-1.019-1.923-1.811-4.931-2.067-6.979-0.248-1.981 0.168-5.083 1.445-7.179 0.75-1.185 1.24-2.603 1.358-4.126l0.002-0.031h2.453c0.12 1.554 0.61 2.972 1.382 4.195l-0.022-0.038c1.275 2.096 1.693 5.197 1.456 7.179-0.267 2.048-1.067 5.056-2.077 6.979zM26.768 25.259c-1.090 1.877-2.854 3.261-4.953 3.832l-0.057 0.013c-0.638 0.177-1.372 0.279-2.129 0.279-2.366 0-4.5-0.994-6.006-2.587l-0.004-0.004c0.3-1.010 0.564-2.242 0.739-3.502l0.016-0.138c0.050-0.449 0.078-0.97 0.078-1.498 0-0.884-0.080-1.75-0.233-2.59l0.013 0.088c0.166 0.090 0.364 0.143 0.575 0.143 0.677 0 1.227-0.549 1.227-1.227s-0.549-1.227-1.227-1.227c-0.404 0-0.762 0.195-0.986 0.496l-0.002 0.003c-0.176-0.599-0.357-1.092-0.566-1.57l0.033 0.085c1.524-1.83 3.803-2.987 6.352-2.987 4.555 0 8.248 3.693 8.248 8.248 0 1.523-0.413 2.95-1.133 4.175l0.021-0.039z"></path>
<path d="M17.451 15c-0.678 0.002-1.227 0.551-1.227 1.229s0.55 1.229 1.229 1.229 1.229-0.55 1.229-1.229v0c0-0.001 0-0.002 0-0.003 0-0.677-0.549-1.227-1.227-1.227-0.002 0-0.004 0-0.006 0h0z"></path>
<path d="M17.451 18.365c-0.678 0.002-1.227 0.551-1.227 1.229s0.55 1.229 1.229 1.229 1.229-0.55 1.229-1.229v0c0-0.001 0-0.002 0-0.003 0-0.677-0.549-1.227-1.227-1.227-0.002 0-0.004 0-0.006 0h0z"></path>
</svg>
