<!-- Generated by IcoMoon.io -->
<svg version="1.1" xmlns="http://www.w3.org/2000/svg" width="32" height="32" viewBox="0 0 32 32">
<title>Iconos-app-codere-Expand_icon-australian_football</title>
<path d="M10.323 16.533h4.059l0.819 2.416h2.477l-4.056-10.851h-2.448l-4.12 10.851h2.419zM12.36 10.773h0.029l1.368 3.981h-2.824z"></path>
<path d="M29.939 2.4c-1.939-1.963-5.755-2.621-10.205-1.776-9.72 1.974-17.27 9.455-19.317 18.979l-0.029 0.162c-0.891 4.421-0.227 8.267 1.773 10.275 1.067 1.067 3.371 1.693 6.312 1.693 2.307 0 10.307-0.477 16.459-6.6 7.336-7.317 8.936-18.816 5.008-22.733zM2.477 20.187c1.902-8.838 8.791-15.663 17.516-17.442l0.145-0.025c0.964-0.197 2.076-0.313 3.213-0.32l0.006-0c1.867 0 3.44 0.355 4.48 1.021-0.713 3.925-2.119 7.421-4.096 10.517l0.070-0.117c-4.547 7.259-11.621 11.733-21.029 13.333-0.733-1.685-0.861-4.192-0.304-6.968zM23.424 23.621c-4.427 4.408-10.624 5.979-14.952 5.979-2.456 0-4.099-0.483-4.709-0.987 11.875-2.213 18.208-8.8 21.443-13.989 1.749-2.759 3.113-5.965 3.916-9.388l0.042-0.212c1.613 3.651 0.603 12.283-5.739 18.597z"></path>
</svg>
