<!-- Generated by IcoMoon.io -->
<svg version="1.1" xmlns="http://www.w3.org/2000/svg" width="32" height="32" viewBox="0 0 32 32">
<title>Iconos-app-codere-Expand_icon-artes_marciales</title>
<path d="M31.851 16.533c-1.907-3.2-5.048-8.632-5.368-9.56-0.613-1.723-2.331-3.408-4-3.92-1.275-0.387-1.539-0.485-1.539-0.485-0.029-0.011-0.065-0.022-0.101-0.031l-0.005-0.001-2.091-0.533c-0.079-0.021-0.17-0.033-0.264-0.033-0.501 0-0.921 0.345-1.036 0.81l-0.002 0.007-0.896 3.733-2.083-3.853c-0.183-0.339-0.536-0.565-0.941-0.565-0.092 0-0.181 0.012-0.266 0.033l0.007-0.002-2.101 0.533c-0.058 0.015-0.108 0.032-0.156 0.053l0.006-0.002c-0.032 0-0.328 0.123-1.48 0.467-1.664 0.493-3.384 2.179-4 3.923-0.333 0.912-3.48 6.347-5.387 9.557-0.097 0.157-0.154 0.348-0.154 0.552 0 0.388 0.207 0.728 0.517 0.914l0.005 0.003 3.843 2.317c0.157 0.096 0.346 0.152 0.549 0.152 0.107 0 0.21-0.016 0.307-0.045l-0.008 0.002c0.293-0.086 0.528-0.289 0.656-0.554l0.003-0.006 2.357-4.683 0.363 5.453c0.039 0.557 0.5 0.995 1.064 0.995 0.001 0 0.002 0 0.003 0h4.267c0.005 0 0.011 0 0.017 0 0.056 0 0.111-0.005 0.164-0.014l-0.006 0.001c0.037 0.006 0.082 0.011 0.128 0.013l0.002 0h8.112c0.001 0 0.002 0 0.003 0 0.563 0 1.024-0.436 1.064-0.989l0-0.003 0.381-5.6 2.347 4.691c0.137 0.258 0.369 0.451 0.648 0.531l0.008 0.002c0.090 0.027 0.192 0.043 0.299 0.043 0.203 0 0.392-0.057 0.554-0.155l-0.005 0.003 3.843-2.317c0.308-0.191 0.51-0.527 0.51-0.91 0-0.194-0.052-0.376-0.142-0.532l0.003 0.005zM10.648 19.632l-0.557-8.349c-0.040-0.557-0.501-0.993-1.064-0.993-0.414 0-0.772 0.235-0.949 0.579l-0.003 0.006-3.597 7.144-1.955-1.176c1.352-2.293 4.597-7.845 5.016-9.024 0.387-1.083 1.6-2.296 2.605-2.592 0.8-0.237 1.347-0.413 1.6-0.509l1.237-0.312 2.789 5.144-2.667 10.083zM27.525 17.867l-3.587-7.133c-0.179-0.353-0.539-0.59-0.954-0.59-0.565 0-1.027 0.439-1.064 0.995l-0 0.003-0.587 8.491h-5.755l3.688-15.293 1 0.253c0.192 0.064 0.688 0.221 1.6 0.491 1.011 0.312 2.232 1.523 2.611 2.587 0.413 1.197 3.584 6.624 5.005 9.032z"></path>
<path d="M22.509 22.475h-12.987c-0.589 0-1.067 0.478-1.067 1.067s0.478 1.067 1.067 1.067v0h1.445l-1.731 3c-0.090 0.153-0.143 0.337-0.143 0.533 0 0.589 0.478 1.067 1.067 1.067 0.393 0 0.736-0.212 0.921-0.529l0.003-0.005 1.629-2.824 1.419 1.992c0.194 0.288 0.519 0.474 0.887 0.474 0.589 0 1.067-0.478 1.067-1.067 0-0.242-0.081-0.466-0.217-0.645l0.002 0.003-1.421-2h8.059c0.589 0 1.067-0.478 1.067-1.067s-0.478-1.067-1.067-1.067v0z"></path>
</svg>
