<!-- Generated by IcoMoon.io -->
<svg version="1.1" xmlns="http://www.w3.org/2000/svg" width="32" height="32" viewBox="0 0 32 32">
<title>Iconos-app-codere-Expand_icon-casino</title>
<path d="M16 0c-8.837 0-16 7.163-16 16s7.163 16 16 16c8.837 0 16-7.163 16-16v0c0-8.837-7.163-16-16-16v0zM29.843 15.2h-3.976c-0.259-2.12-1.154-3.995-2.485-5.467l0.008 0.009 2.96-2.957c2.010 2.24 3.301 5.161 3.492 8.378l0.002 0.038zM9.365 23.765c1.555 1.406 3.573 2.327 5.799 2.51l0.036 0.002v3.565c-3.255-0.192-6.176-1.484-8.429-3.505l0.013 0.011zM16.8 26.277c2.262-0.185 4.28-1.106 5.843-2.52l-0.009 0.008 2.581 2.584c-2.24 2.010-5.161 3.301-8.378 3.492l-0.038 0.002zM16 24.712c-4.605 0-8.339-3.733-8.339-8.339s3.733-8.339 8.339-8.339c4.605 0 8.339 3.733 8.339 8.339 0 0.001 0 0.002 0 0.003v-0c-0.006 4.602-3.736 8.331-8.338 8.336h-0zM22.229 8.64c-1.484-1.206-3.351-1.996-5.393-2.166l-0.036-0.002v-4.315c3.255 0.192 6.176 1.484 8.429 3.505l-0.013-0.011zM15.2 6.472c-2.079 0.172-3.945 0.962-5.448 2.182l0.018-0.014-2.987-2.989c2.24-2.010 5.161-3.301 8.378-3.492l0.038-0.002zM5.651 6.784l2.96 2.957c-1.324 1.464-2.218 3.338-2.473 5.411l-0.005 0.048h-3.976c0.192-3.255 1.484-6.176 3.505-8.429l-0.011 0.013zM2.157 16.8h3.915c0.097 2.217 0.909 4.227 2.209 5.823l-0.014-0.018-2.613 2.611c-2.011-2.24-3.303-5.161-3.494-8.378l-0.002-0.038zM26.349 25.216l-2.616-2.611c1.286-1.579 2.098-3.589 2.194-5.785l0.001-0.021h3.915c-0.192 3.255-1.484 6.176-3.505 8.429l0.011-0.013z"></path>
<path d="M21.787 15.107c-0.577 0.035-1.060 0.399-1.268 0.905l-0.004 0.010c-1.048-0.316-2.257-0.516-3.506-0.554l-0.021-0.001c-0.055-1.304-0.283-2.535-0.662-3.697l0.027 0.097c0.534-0.144 0.92-0.624 0.92-1.194 0-0.027-0.001-0.053-0.003-0.079l0 0.004c0-0.701-0.568-1.269-1.269-1.269s-1.269 0.568-1.269 1.269v0c-0.001 0.023-0.002 0.049-0.002 0.076 0 0.57 0.386 1.050 0.911 1.192l0.009 0.002c-0.355 0.848-0.565 2.117-0.635 3.6-1.301 0.049-2.534 0.252-3.709 0.59l0.109-0.027c-0.163-0.523-0.635-0.899-1.198-0.915l-0.002-0c-0.701 0-1.269 0.568-1.269 1.269s0.568 1.269 1.269 1.269v0c0.008 0 0.018 0 0.027 0 0.564 0 1.038-0.387 1.171-0.909l0.002-0.008c1.069 0.373 2.302 0.603 3.585 0.634l0.015 0c0.031 1.297 0.261 2.531 0.66 3.685l-0.026-0.085c-0.531 0.135-0.918 0.609-0.918 1.173 0 0.009 0 0.017 0 0.026l-0-0.001c0 0.701 0.568 1.269 1.269 1.269s1.269-0.568 1.269-1.269v0c0-0.007 0-0.016 0-0.025 0-0.564-0.387-1.038-0.909-1.171l-0.008-0.002c0.337-1.062 0.564-2.291 0.633-3.562l0.002-0.038c1.413-0.069 2.683-0.283 3.528-0.635 0.187 0.534 0.685 0.912 1.271 0.917h0.001c0.701 0 1.269-0.568 1.269-1.269s-0.568-1.269-1.269-1.269v0z"></path>
</svg>
