<!-- Generated by IcoMoon.io -->
<svg version="1.1" xmlns="http://www.w3.org/2000/svg" width="32" height="32" viewBox="0 0 32 32">
<title>Iconos-app-codere-Expand_icon-american_football</title>
<path d="M29.944 2.4c-1.944-1.963-5.755-2.621-10.211-1.776-9.718 1.976-17.265 9.456-19.312 18.979l-0.029 0.162c-0.891 4.421-0.227 8.267 1.776 10.275 1.067 1.067 3.371 1.693 6.309 1.693 2.307 0 10.307-0.477 16.459-6.6 7.349-7.317 8.931-18.816 5.008-22.733zM29.485 12.416c-0.866-2.094-2.072-3.882-3.566-5.382l0.001 0.001 2.776-2.832c1.107 1.475 1.512 4.597 0.789 8.2zM20.152 2.733c0.96-0.2 2.067-0.321 3.201-0.333l0.010-0c1.632 0 3.053 0.267 4.080 0.8l-2.667 2.733c-1.466-1.24-3.153-2.285-4.98-3.063l-0.129-0.049zM8.683 8.8c2.306-2.286 5.107-4.077 8.227-5.199l0.157-0.049c2.525 0.8 4.712 2.003 6.606 3.553l-0.035-0.028-4.091 4.171-0.8-0.776c-0.144-0.14-0.341-0.226-0.557-0.226-0.442 0-0.801 0.358-0.801 0.801 0 0.225 0.093 0.429 0.243 0.574l0 0 0.8 0.771-1.4 1.427-0.827-0.8c-0.144-0.14-0.341-0.226-0.557-0.226-0.442 0-0.801 0.358-0.801 0.801 0 0.225 0.093 0.429 0.243 0.574l0 0 0.821 0.8-1.397 1.427-0.856-0.827c-0.145-0.143-0.343-0.231-0.563-0.231-0.443 0-0.801 0.359-0.801 0.801 0 0.223 0.091 0.425 0.239 0.571l0 0 0.848 0.821-1.381 1.427-0.88-0.851c-0.146-0.15-0.349-0.243-0.574-0.243-0.442 0-0.8 0.358-0.8 0.8 0 0.234 0.101 0.445 0.261 0.591l0.001 0.001 0.872 0.843-4.237 4.309c-2.493-2.608-3.347-5.168-3.619-6.309 1.174-3.65 3.12-6.771 5.658-9.298l0.001-0.001zM2.344 20.973c0.842 1.765 1.906 3.277 3.182 4.582l-0.003-0.003-2.323 2.376c-1-1.515-1.312-4.053-0.856-6.955zM4.408 28.973l2.259-2.307c0.64 0.568 2.075 1.669 4.552 2.736-0.821 0.12-1.772 0.19-2.739 0.195l-0.005 0c-1.845 0.003-3.235-0.264-4.067-0.621zM23.429 23.621c-2.699 2.685-6.056 4.317-9.245 5.179-3.685-1.179-5.661-2.648-6.4-3.28l4.235-4.307 0.8 0.776c0.144 0.139 0.34 0.225 0.556 0.225 0.225 0 0.429-0.093 0.574-0.243l0-0c0.139-0.144 0.225-0.34 0.225-0.556 0-0.225-0.093-0.429-0.243-0.574l-0-0-0.8-0.771 1.4-1.427 0.827 0.8c0.144 0.14 0.34 0.227 0.557 0.227h0c0.001 0 0.001 0 0.002 0 0.442 0 0.8-0.358 0.8-0.8 0-0.226-0.094-0.43-0.245-0.576l-0-0-0.821-0.8 1.416-1.419 0.853 0.827c0.144 0.14 0.341 0.226 0.557 0.226 0.442 0 0.801-0.358 0.801-0.801 0-0.225-0.093-0.429-0.243-0.574l-0-0-0.859-0.819 1.4-1.427 0.88 0.853c0.144 0.139 0.339 0.224 0.555 0.224h0c0.001 0 0.001 0 0.002 0 0.442 0 0.8-0.358 0.8-0.8 0-0.226-0.094-0.43-0.245-0.576l-0-0-0.872-0.843 4.104-4.187c1.889 1.892 3.259 4.303 3.875 7.001l0.019 0.097c-1.169 3.266-2.967 6.055-5.263 8.343l-0.001 0.001z"></path>
</svg>
