<!-- Generated by IcoMoon.io -->
<svg version="1.1" xmlns="http://www.w3.org/2000/svg" width="32" height="32" viewBox="0 0 32 32">
<title>Iconos-app-codere-Expand_Icon-Bowls-2</title>
<path d="M28.32 10.667c-4.88-4.88-12.773-4.853-17.653 0s-4.853 12.773 0 17.627c4.88 4.853 12.747 4.853 17.627 0s4.907-12.72 0.053-17.6c0 0-0.027 0-0.027-0.027zM28.187 25.093c-3.813 1.52-8.693 0.32-12.187-3.173-2.773-2.773-4.133-6.453-3.733-9.84 1.733-1.707 4.053-2.747 6.48-2.907-0.427 0.213-0.8 0.48-1.12 0.827-2.213 2.213-1.707 6.32 1.147 9.173 1.653 1.653 3.733 2.507 5.627 2.507 1.307 0.027 2.587-0.453 3.547-1.387 1.067-1.067 1.493-2.533 1.36-4.107 0.96 2.987 0.56 6.24-1.12 8.907v0zM25.707 11.227c0.187 0.16 0.373 0.32 0.533 0.48 2.533 2.533 3.040 6.133 1.147 8.053s-5.52 1.387-8.053-1.147-3.040-6.133-1.147-8.053c0.8-0.773 1.867-1.173 2.987-1.147 0.347 0 0.693 0.027 1.040 0.107 1.253 0.32 2.453 0.907 3.493 1.707v0zM19.493 29.813c-5.707 0-10.347-4.613-10.347-10.32 0-2.347 0.8-4.613 2.267-6.453-0.080 3.333 1.36 6.8 4.027 9.467s6.053 4.027 9.28 4.027c0.88 0 1.787-0.107 2.64-0.347-0.187 0.213-0.347 0.4-0.56 0.613-1.947 1.947-4.56 3.040-7.307 3.013z"></path>
<path d="M20.613 17.253c0.907 0.96 2.187 1.52 3.493 1.573 0.8 0.027 1.573-0.267 2.133-0.827 1.333-1.333 1.013-3.867-0.747-5.627-0.773-0.8-1.813-1.36-2.907-1.547-1.093-0.16-2.053 0.107-2.72 0.773-1.36 1.36-1.013 3.893 0.747 5.653zM22 11.6c0.16 0 0.32 0 0.48 0.027 0.933 0.16 1.813 0.613 2.48 1.307 1.44 1.44 1.787 3.467 0.747 4.507s-3.067 0.693-4.507-0.747-1.787-3.467-0.747-4.507c0.4-0.4 0.96-0.613 1.547-0.587z"></path>
<path d="M4.133 1.067c1.707 0 3.067 1.387 3.067 3.067 0 1.707-1.387 3.067-3.067 3.067s-3.067-1.36-3.067-3.067c0-1.68 1.387-3.067 3.067-3.067zM4.133 0c-2.267 0-4.133 1.867-4.133 4.133 0 2.293 1.867 4.133 4.133 4.133s4.133-1.867 4.133-4.133c0.027-2.267-1.84-4.133-4.133-4.133v0z"></path>
</svg>
