<!-- Generated by IcoMoon.io -->
<svg version="1.1" xmlns="http://www.w3.org/2000/svg" width="32" height="32" viewBox="0 0 32 32">
<title>Iconos-app-codere-Expand_icon-Bat</title>
<path d="M25.947 3.52c-0.747 0-1.467 0.32-1.973 0.853l-7.173 7.52c0 0-0.027 0.027-0.027 0.027l-3.707 4.96-7.2 7.6-0.187-0.107c-0.347-0.16-0.773-0.16-1.12 0-0.587 0.293-0.853 1.040-0.533 1.627 0 0 0 0 0 0 0.053 0.107 0.133 0.213 0.213 0.32l1.6 1.6c0.24 0.24 0.533 0.347 0.853 0.347 0.693 0 1.227-0.56 1.227-1.253 0-0.187-0.053-0.373-0.133-0.533l-0.107-0.187 7.6-7.2 4.933-3.707 0.027-0.027 7.547-7.173c1.093-1.040 1.12-2.773 0.107-3.867-0.48-0.507-1.2-0.8-1.947-0.8v0z"></path>
</svg>
