<!-- Generated by IcoMoon.io -->
<svg version="1.1" xmlns="http://www.w3.org/2000/svg" width="32" height="32" viewBox="0 0 32 32">
<title>Iconos-app-codere-Expand_icon-cine</title>
<path d="M11.155 13.472c0-2.062-1.671-3.733-3.733-3.733s-3.733 1.671-3.733 3.733c0 2.062 1.671 3.733 3.733 3.733v0c2.062 0 3.733-1.671 3.733-3.733v0zM5.288 13.472c0-1.178 0.955-2.133 2.133-2.133s2.133 0.955 2.133 2.133c0 1.178-0.955 2.133-2.133 2.133v0c-1.175-0.005-2.125-0.958-2.125-2.133 0 0 0 0 0-0v0z"></path>
<path d="M17.755 16.061c0-1.362-1.104-2.467-2.467-2.467s-2.467 1.104-2.467 2.467c0 1.362 1.104 2.467 2.467 2.467v0c1.362-0.002 2.465-1.105 2.467-2.467v-0zM15.288 16.928c-0.479 0-0.867-0.388-0.867-0.867s0.388-0.867 0.867-0.867c0.479 0 0.867 0.388 0.867 0.867v0c-0.002 0.478-0.389 0.865-0.867 0.867h-0z"></path>
<path d="M15.288 11.501c2.062 0 3.733-1.671 3.733-3.733s-1.671-3.733-3.733-3.733c-2.062 0-3.733 1.671-3.733 3.733v0c0 2.062 1.671 3.733 3.733 3.733v0zM15.288 5.635c1.178 0 2.133 0.955 2.133 2.133s-0.955 2.133-2.133 2.133c-1.178 0-2.133-0.955-2.133-2.133v0c0.005-1.175 0.958-2.125 2.133-2.125 0 0 0 0 0 0v0z"></path>
<path d="M10.421 18.997c-2.062 0-3.733 1.671-3.733 3.733s1.671 3.733 3.733 3.733c2.062 0 3.733-1.671 3.733-3.733v0c0-2.062-1.671-3.733-3.733-3.733v0zM10.421 24.864c-1.178 0-2.133-0.955-2.133-2.133s0.955-2.133 2.133-2.133c1.178 0 2.133 0.955 2.133 2.133v0c-0.005 1.175-0.958 2.125-2.133 2.125 0 0 0 0-0 0v0z"></path>
<path d="M20.155 18.997c-2.062 0-3.733 1.671-3.733 3.733s1.671 3.733 3.733 3.733c2.062 0 3.733-1.671 3.733-3.733v0c0-2.062-1.671-3.733-3.733-3.733v0zM20.155 24.864c-1.178 0-2.133-0.955-2.133-2.133s0.955-2.133 2.133-2.133c1.178 0 2.133 0.955 2.133 2.133v0c-0.005 1.175-0.958 2.125-2.133 2.125 0 0 0 0-0 0v0z"></path>
<path d="M23.077 17.203c2.062 0 3.733-1.671 3.733-3.733s-1.671-3.733-3.733-3.733c-2.062 0-3.733 1.671-3.733 3.733v0c0 2.062 1.671 3.733 3.733 3.733v0zM23.077 11.336c1.178 0 2.133 0.955 2.133 2.133s-0.955 2.133-2.133 2.133c-1.178 0-2.133-0.955-2.133-2.133v0c0.005-1.175 0.958-2.125 2.133-2.125 0 0 0 0 0 0v0z"></path>
<path d="M30.933 29.264h-7.867c4.517-2.71 7.493-7.581 7.493-13.147 0-8.439-6.841-15.28-15.28-15.28s-15.28 6.841-15.28 15.28c0 8.439 6.841 15.28 15.28 15.28 0.003 0 0.006 0 0.009 0h15.645c0.589 0 1.067-0.478 1.067-1.067s-0.478-1.067-1.067-1.067v0zM2.133 16.109c0-0.001 0-0.002 0-0.003 0-7.267 5.891-13.157 13.157-13.157s13.157 5.891 13.157 13.157c0 7.267-5.891 13.157-13.157 13.157-0.001 0-0.002 0-0.003 0h0c-7.261-0.011-13.144-5.894-13.155-13.154v-0.001z"></path>
</svg>
