<!-- Generated by IcoMoon.io -->
<svg version="1.1" xmlns="http://www.w3.org/2000/svg" width="32" height="32" viewBox="0 0 32 32">
<title>Iconos-app-codere-Expand_icon-boxeo</title>
<path d="M29.501 5.827c-2.509-2.133-7.053-3.2-10.133-2.4-0.708 0.197-1.3 0.616-1.711 1.175l-0.006 0.009c-0.131-0.017-0.282-0.027-0.435-0.027-0.383 0-0.751 0.061-1.097 0.172l0.025-0.007c-1.227-1.251-2.784-1.464-4.16-1.549-3.067-0.216-8.293 1.179-9.739 4.267-0.206 0.479-0.342 1.035-0.378 1.618l-0.001 0.014c-0.82 0.47-1.427 1.233-1.685 2.143l-0.006 0.025c-0.373 1.304-0.157 2.952 0.645 4.899 0.569 1.383 1.267 2.577 2.104 3.657l-0.026-0.036c0.933 1.141 2.051 1.781 2.952 2.296 0.477 0.267 0.973 0.56 1.133 0.771 0.339 0.448 0.941 1.733 1.427 2.765 0.392 0.832 0.763 1.619 1.067 2.152 0.369 0.718 1.105 1.2 1.953 1.2 0.037 0 0.074-0.001 0.111-0.003l-0.005 0c0.915 0 1.973-0.365 3.061-0.741 0.512-0.179 1.085-0.373 1.704-0.565l0.296 0.101c0.365 0.125 0.768 0.267 1.211 0.421 1.427 0.507 2.509 0.768 3.36 0.768 1.243 0 1.987-0.563 2.565-1.741 0.251-0.512 0.533-1.208 0.832-1.947 0.48-1.171 1.067-2.632 1.549-3.317 0.274-0.393 0.536-0.731 0.815-1.055l-0.015 0.017c0.664-0.8 1.491-1.8 3.411-5.067l0.045-0.083c2.645-5.589 1.827-7.656-0.869-9.933zM11.835 5.317c1.269 0.088 1.989 0.267 2.525 0.685-0.8 0.963-1.283 2.291-1.581 3.611-3.272 3.291-6.981 1.813-7.92 1.355-0.351-0.65-0.621-1.405-0.769-2.203l-0.007-0.048s0-0.024 0-0.037c0.025-0.124 0.059-0.233 0.103-0.337l-0.004 0.012c0.885-1.92 4.92-3.235 7.653-3.037zM6.909 20.232c-0.784-0.448-1.675-0.96-2.357-1.795-1.085-1.333-2.845-4.768-2.325-6.581 0.119-0.441 0.426-0.794 0.828-0.972l0.009-0.004c0.115 0.28 0.253 0.587 0.416 0.915 0.029 0.089 0.069 0.165 0.119 0.234l-0.002-0.002c0.688 1.276 1.44 2.377 2.294 3.389l-0.024-0.030c0.148 0.18 0.37 0.293 0.619 0.293h0c0.001 0 0.001 0 0.002 0 0.442 0 0.8-0.358 0.8-0.8 0-0.194-0.069-0.372-0.184-0.511l0.001 0.001c-0.392-0.461-0.704-0.899-1.008-1.304 0.592 0.14 1.273 0.222 1.972 0.224h0.001c0.005 0 0.012 0 0.018 0 1.616 0 3.117-0.492 4.361-1.335l-0.027 0.018c-0.038 0.396-0.059 0.857-0.059 1.323 0 0.201 0.004 0.4 0.012 0.599l-0.001-0.029c0.080 1.472 0.605 2.651 1.027 3.597 0.224 0.504 0.456 1.024 0.461 1.291-0.045 0.707-0.139 1.364-0.283 2.002l0.016-0.084c-0.149 0.083-0.293 0.16-0.437 0.232l-0.672-1.867c-0.103-0.332-0.407-0.568-0.766-0.568-0.442 0-0.8 0.358-0.8 0.8 0 0.109 0.022 0.212 0.061 0.307l-0.002-0.005 0.709 1.971c-0.761 0.291-1.647 0.513-2.567 0.624l-0.055 0.005c-0.133-0.235-0.262-0.433-0.401-0.623l0.012 0.017c-0.411-0.557-1.072-0.933-1.768-1.333zM11.333 26.717c-0.267-0.464-0.619-1.213-0.992-2.008l-0.475-1.027c1.174-0.202 2.223-0.524 3.209-0.959l-0.087 0.034h0.016l0.227-0.099c-0.109 0.589-0.205 1.125-0.267 1.547-0.109 0.971 0.133 1.624 0.624 2.115-1.299 0.44-2.101 0.672-2.256 0.397zM22.592 24.461c-0.288 0.701-0.557 1.365-0.776 1.811-0.243 0.496-0.285 0.507-0.389 0.533-0.267 0.059-0.979 0.056-2.904-0.629-0.451-0.16-0.864-0.301-1.237-0.429-2.253-0.768-2.245-0.829-2.192-1.304 0.061-0.533 0.219-1.333 0.387-2.205 0.099-0.512 0.195-1.013 0.267-1.483 1.635 0.664 4.648 1.736 7.568 1.952-0.237 0.563-0.483 1.16-0.723 1.755zM28.459 14.803c-1.813 3.085-2.544 3.968-3.2 4.744-0.296 0.357-0.573 0.693-0.915 1.184-0.085 0.125-0.173 0.267-0.267 0.411-3.067-0.075-6.579-1.408-8.096-2.032 0-0.141 0.016-0.267 0-0.392 0-0.699-0.32-1.389-0.645-2.133-0.371-0.827-0.8-1.763-0.845-2.84-0.093-1.723 0.368-5.6 1.867-6.747 0.074-0.059 0.157-0.112 0.245-0.156l0.008-0.004c-0.324 1.231-0.51 2.643-0.51 4.1 0 0.153 0.002 0.305 0.006 0.456l-0-0.022c0.015 0.578 0.487 1.040 1.067 1.040 0.589 0 1.067-0.478 1.067-1.067 0-0.009-0-0.019-0-0.028l0 0.001c-0.043-1.616 0.227-3.763 0.8-4.963 0.033-0.049 0.064-0.105 0.088-0.164l0.002-0.006c0.15-0.332 0.419-0.588 0.751-0.717l0.009-0.003c2.4-0.619 6.248 0.299 8.221 1.968 1.707 1.456 2.733 2.323 0.352 7.371z"></path>
</svg>
