<!-- Generated by IcoMoon.io -->
<svg version="1.1" xmlns="http://www.w3.org/2000/svg" width="32" height="32" viewBox="0 0 32 32">
<title>Iconos-app-codere-Expand_icon-apuestas-83</title>
<path d="M18.4 31.653c-0.827 0-1.707-0.187-2.587-0.56-0.133-0.027-0.24-0.080-0.347-0.16l-13.040-5.547c-0.053-0.027-0.133-0.053-0.187-0.107-0.133-0.080-3.040-2.107-1.787-6.693 0.080-0.293 0.293-0.533 0.56-0.667 0.267-0.16 0.587-0.16 0.853-0.053l14.16 5.707c0.507 0.187 0.773 0.72 0.64 1.253-0.32 1.28-0.507 3.467 0.027 4.32 1.12 0.453 2.080 0.507 2.987 0.107 1.893-0.827 2.8-3.36 2.827-3.387l6.933-19.467-15.653-3.68-5.387 14.933c-0.187 0.56-0.8 0.853-1.36 0.64s-0.853-0.8-0.64-1.36l5.707-15.813c0.187-0.507 0.72-0.8 1.253-0.667l17.76 4.16c0.293 0.080 0.56 0.267 0.693 0.533s0.16 0.587 0.080 0.88l-7.413 20.533c-0.053 0.133-1.173 3.44-3.973 4.667-0.667 0.267-1.387 0.427-2.107 0.427zM3.387 23.493l10.853 4.613c-0.080-1.067 0.027-2.133 0.16-2.88l-12.107-4.88c-0.080 0.853 0.080 1.627 0.427 2.267 0.24 0.48 0.533 0.773 0.667 0.88z"></path>
<path d="M16.32 8.347c-0.080 0-0.16 0-0.267-0.027l-0.773-0.187c-0.56-0.133-0.933-0.72-0.773-1.28 0.133-0.56 0.72-0.933 1.28-0.773l0.773 0.187c0.56 0.133 0.933 0.72 0.773 1.28-0.107 0.48-0.533 0.8-1.013 0.8z"></path>
<path d="M25.147 10.533c-0.080 0-0.16 0-0.267-0.027l-5.707-1.413c-0.56-0.133-0.933-0.72-0.773-1.28 0.133-0.56 0.72-0.933 1.28-0.773l5.707 1.413c0.56 0.133 0.933 0.72 0.773 1.28-0.107 0.48-0.533 0.8-1.013 0.8z"></path>
<path d="M14.48 13.387c-0.107 0-0.213-0.027-0.32-0.053l-0.747-0.24c-0.56-0.16-0.88-0.773-0.72-1.333s0.773-0.88 1.333-0.72l0.747 0.24c0.56 0.16 0.88 0.773 0.72 1.333-0.133 0.48-0.56 0.773-1.013 0.773z"></path>
<path d="M23.173 16.027c-0.107 0-0.213-0.027-0.32-0.053l-5.627-1.707c-0.56-0.16-0.88-0.773-0.72-1.333s0.773-0.88 1.333-0.72l5.627 1.733c0.56 0.16 0.88 0.773 0.72 1.333-0.133 0.453-0.56 0.747-1.013 0.747z"></path>
<path d="M12.347 18.507c-0.107 0-0.24-0.027-0.347-0.053l-0.747-0.267c-0.56-0.187-0.853-0.8-0.667-1.36s0.8-0.853 1.36-0.667l0.747 0.267c0.56 0.187 0.853 0.8 0.667 1.36-0.133 0.453-0.56 0.72-1.013 0.72z"></path>
<path d="M20.96 21.44c-0.107 0-0.24-0.027-0.347-0.053l-5.573-1.893c-0.56-0.187-0.853-0.8-0.667-1.36s0.8-0.853 1.36-0.667l5.573 1.893c0.56 0.187 0.853 0.8 0.667 1.36-0.16 0.427-0.56 0.72-1.013 0.72z"></path>
</svg>
