<!-- Generated by IcoMoon.io -->
<svg version="1.1" xmlns="http://www.w3.org/2000/svg" width="32" height="32" viewBox="0 0 32 32">
<title>Iconos-app-codere-Expand_icon-bj</title>
<path d="M19.765 8.163c0.44-0.029 0.773-0.411 0.744-0.853-0.029-0.44-0.408-0.771-0.853-0.744-4.827 0.331-7.792-1.736-7.835-1.768-0.357-0.259-0.856-0.179-1.115 0.179s-0.179 0.859 0.179 1.117c0.128 0.093 2.963 2.107 7.715 2.107 0.376 0.003 0.765-0.011 1.165-0.037z"></path>
<path d="M29.821 10.616l-6.344 0.040c0.048-0.8 0.011-1.827-0.357-2.349-0.048-0.067-0.099-0.131-0.155-0.189-0.029-0.323-0.083-0.629-0.133-0.909-0.016-0.093-0.032-0.189-0.048-0.283-0.021-0.128-0.043-0.261-0.061-0.395l-0.011-0.069c-0.139-0.909-0.296-1.939-0.677-2.669-1.189-2.296-3.624-3.632-6.696-3.667-3.048 0.035-5.483 1.371-6.675 3.667-0.379 0.731-0.536 1.76-0.675 2.669l-0.011 0.069c-0.021 0.136-0.040 0.269-0.061 0.397-0.016 0.093-0.032 0.187-0.048 0.288-0.048 0.28-0.101 0.587-0.131 0.904-0.056 0.059-0.107 0.12-0.155 0.189-0.411 0.587-0.539 1.6-0.339 2.712 0.208 1.16 0.672 2.037 1.28 2.445 0.547 1.344 1.309 2.579 2.195 3.555l-0.84 1.739c-0.275 0.040-0.624 0.061-0.989 0.083-0.627 0.037-1.339 0.077-2.003 0.235-0.032 0.008-0.072 0.013-0.117 0.024-0.771 0.147-3.117 0.597-4.715 4.259l-0.067 0.152v7.096h15.491l-0.003 0.496c-0.003 0.352 0.283 0.64 0.635 0.64l7.576 0.040 4.032-0.115c0.051 0 0.099-0.005 0.147-0.016 0.28-0.067 0.488-0.317 0.491-0.619l0.104-19.779c-0.005-0.349-0.288-0.637-0.64-0.64zM9.787 12.256l-0.371-0.117c-0.104-0.059-0.44-0.501-0.6-1.4-0.141-0.797-0.024-1.333 0.064-1.493l0.421-0.179 0.011-0.52c0.008-0.339 0.067-0.688 0.133-1.061 0.019-0.101 0.035-0.2 0.051-0.301 0.021-0.133 0.043-0.272 0.064-0.413l0.011-0.069c0.115-0.747 0.256-1.677 0.515-2.173 0.912-1.755 2.835-2.776 5.256-2.803 2.443 0.027 4.368 1.051 5.277 2.803 0.256 0.496 0.4 1.427 0.515 2.176l0.011 0.069c0.021 0.141 0.043 0.277 0.064 0.411 0.016 0.101 0.035 0.2 0.051 0.301 0.064 0.368 0.125 0.717 0.133 1.067l0.013 0.517 0.405 0.171c0.072 0.221 0.109 0.813 0.067 1.429l-3.664 0.024c-0.051 0-0.099 0.005-0.147 0.016-0.28 0.067-0.488 0.317-0.491 0.616l-0.005 0.984-0.024 4.752c-0.261 0.155-0.683 0.379-0.883 0.456-0.875 0.347-1.749 0.347-2.624 0-0.619-0.245-1.224-0.656-1.803-1.221-0.957-0.933-1.784-2.243-2.331-3.685zM17.528 20.408c-0.669 0.16-1.421 0.251-2.203 0.251-1.165 0-2.259-0.187-3.080-0.523-0.536-0.219-0.832-0.456-0.955-0.627l0.656-1.357c0.485 0.363 0.987 0.648 1.504 0.853 0.627 0.248 1.267 0.373 1.901 0.373s1.275-0.125 1.901-0.373c0.083-0.032 0.181-0.077 0.283-0.125zM10.853 21.216c0.875 0.568 2.227 0.981 4.069 1.035v6.016zM8.976 20.44c0.165-0.011 0.328-0.019 0.488-0.029l4.963 8.6h-6.963v-8.419c0.477-0.088 1-0.123 1.512-0.152zM3.581 23.848c1.037-2.277 2.32-2.88 3.080-3.088v8.245h-3.080zM15.717 29.008c0.003-0.016 0.005-0.029 0.005-0.045v-6.717c0.621-0.021 1.229-0.083 1.795-0.195l-0.037 6.957zM29.285 30.616l-3.619 0.101-7.128-0.037 0.099-18.365 0.003-0.56 10.747-0.069z"></path>
<path d="M24.328 23.555s-0.293 0.613-0.955 1.216c-0.587 0.533-1.224 0.795-1.224 0.795l4.341 0.021s-0.635-0.267-1.216-0.808c-0.661-0.608-0.947-1.224-0.947-1.224z"></path>
<path d="M22.691 24.123c0.643 0.003 1.221-0.261 1.637-0.688 0.411 0.429 0.989 0.701 1.629 0.704 0.195 0 0.381-0.024 0.56-0.069 0.984-0.245 1.717-1.128 1.723-2.189 0.008-1.491-1.373-1.928-2.291-2.72-0.923-0.797-1.504-1.637-1.592-1.651-0.021 0.003-0.069 0.053-0.141 0.133-0.24 0.267-0.752 0.896-1.467 1.501-0.925 0.781-2.312 1.205-2.317 2.696-0.005 1.253 1.005 2.275 2.259 2.283z"></path>
</svg>
