<!-- Generated by IcoMoon.io -->
<svg version="1.1" xmlns="http://www.w3.org/2000/svg" width="32" height="32" viewBox="0 0 32 32">
<title>Iconos-app-codere-Expand_icon-alert</title>
<path d="M29.16 23.419c-1.144-0.451-3.869-2.304-4-3.405-0.205-1.712-0.267-3.467-0.389-5.179-0.096-1.275-0.195-2.552-0.309-3.824s-0.139-2.744-0.501-3.971c-0.533-1.837-2.907-3.36-4.429-3.955-0.622-0.249-1.351-0.45-2.107-0.568l-0.058-0.008v-1.144c0-0.754-0.611-1.365-1.365-1.365s-1.365 0.611-1.365 1.365v0 1.144c-0.814 0.126-1.543 0.327-2.235 0.6l0.070-0.024c-1.523 0.595-3.885 2.117-4.429 3.955-0.363 1.237-0.381 2.667-0.499 3.971s-0.213 2.549-0.309 3.824c-0.128 1.72-0.184 3.467-0.389 5.179-0.133 1.101-2.859 2.955-4 3.405-1.067 0.416-1.28 2.168-0.291 2.667 0.589 0.389 3.603 0.717 7.752 0.877 0.462 2.766 2.837 4.848 5.699 4.848s5.237-2.082 5.694-4.814l0.005-0.034c4.149-0.16 7.163-0.488 7.752-0.877 0.987-0.485 0.763-2.251-0.293-2.667zM16 29.691c-1.623-0.008-2.995-1.075-3.46-2.545l-0.007-0.026h6.96c-0.474 1.501-1.854 2.571-3.483 2.571-0.004 0-0.007 0-0.011 0h0.001zM16 24.941c-0.283 0.003-0.617 0.004-0.951 0.004-3.426 0-6.815-0.161-10.158-0.477l0.427 0.033c0.413-0.267 0.829-0.557 1.216-0.861 1.523-1.189 2.293-2.261 2.427-3.373 0.144-1.205 0.219-2.416 0.288-3.584 0.035-0.557 0.069-1.133 0.112-1.688 0.083-1.117 0.187-2.443 0.307-3.795 0.029-0.317 0.051-0.64 0.072-0.952 0.033-0.94 0.158-1.833 0.368-2.693l-0.019 0.090c0.237-0.8 1.715-2.008 3.157-2.573 0.491-0.196 1.065-0.354 1.661-0.447l0.046-0.006c0.404-0.060 0.761-0.228 1.051-0.472l-0.003 0.003c0.287 0.242 0.644 0.409 1.036 0.468l0.012 0.001c0.642 0.099 1.216 0.257 1.762 0.473l-0.055-0.019c1.443 0.565 2.933 1.768 3.157 2.573 0.191 0.77 0.317 1.663 0.349 2.58l0.001 0.023c0.021 0.312 0.043 0.635 0.072 0.952 0.12 1.352 0.224 2.667 0.307 3.795 0.043 0.555 0.077 1.131 0.112 1.688 0.069 1.168 0.144 2.379 0.288 3.584 0.133 1.112 0.904 2.184 2.427 3.373 0.387 0.304 0.8 0.597 1.216 0.861-2.916 0.283-6.305 0.444-9.731 0.444-0.335 0-0.669-0.002-1.002-0.005l0.051 0z"></path>
</svg>
