<!-- Generated by IcoMoon.io -->
<svg version="1.1" xmlns="http://www.w3.org/2000/svg" width="32" height="32" viewBox="0 0 32 32">
<title>Iconos-app-codere-Expand_icon-baseball</title>
<path d="M13.237 6.133c-0 0-0.001 0-0.001 0-0.442 0-0.8-0.358-0.8-0.8 0-0.237 0.103-0.45 0.267-0.597l0.001-0.001c0.19-0.169 0.364-0.343 0.528-0.527l0.006-0.006c0.224-0.253 0.549-0.411 0.912-0.411 0.224 0 0.434 0.061 0.614 0.166l-0.006-0.003c0.304 0.181 0.603 0.381 0.891 0.592 0.197 0.147 0.323 0.38 0.323 0.643 0 0.442-0.358 0.801-0.801 0.801-0.18 0-0.346-0.059-0.479-0.159l0.002 0.002c-0.155-0.115-0.315-0.224-0.477-0.331-0.141 0.152-0.291 0.296-0.443 0.432-0.14 0.124-0.326 0.2-0.529 0.2-0.002 0-0.005 0-0.007-0h0zM14.443 5.245v0z"></path>
<path d="M5.155 18.864c-0 0-0.001 0-0.001 0-0.442 0-0.8-0.358-0.8-0.8 0-0.253 0.118-0.479 0.301-0.625l0.002-0.001c0.152-0.12 0.296-0.245 0.435-0.373q-0.168-0.267-0.312-0.533c-0.059-0.109-0.094-0.239-0.094-0.377 0-0.442 0.359-0.801 0.801-0.801 0.304 0 0.569 0.17 0.705 0.42l0.002 0.004c0.142 0.264 0.276 0.483 0.421 0.694l-0.016-0.025c0.129 0.189 0.205 0.423 0.205 0.675 0 0.329-0.131 0.627-0.344 0.846l0-0c-0.247 0.255-0.508 0.493-0.784 0.713l-0.016 0.013c-0.135 0.108-0.309 0.173-0.497 0.173-0.002 0-0.005 0-0.007-0h0zM5.315 16.843v0z"></path>
<path d="M9.405 18.187c-0.003 0-0.007 0-0.011 0-0.091 0-0.179-0.015-0.262-0.042l0.006 0.002c-0.321-0.109-0.547-0.408-0.547-0.759 0-0.090 0.015-0.177 0.042-0.257l-0.002 0.006q0.088-0.267 0.16-0.552c-0.179-0.101-0.355-0.211-0.533-0.323-0.216-0.146-0.356-0.39-0.356-0.667 0-0.443 0.359-0.802 0.802-0.802 0.166 0 0.32 0.050 0.448 0.137l-0.003-0.002c0.18 0.123 0.391 0.251 0.609 0.366l0.037 0.018c0.385 0.206 0.643 0.606 0.643 1.066 0 0.089-0.010 0.176-0.028 0.259l0.001-0.008c-0.084 0.405-0.176 0.742-0.286 1.071l0.019-0.066c-0.105 0.316-0.394 0.542-0.738 0.552l-0.001 0z"></path>
<path d="M12.507 15.891c-0.383-0.006-0.7-0.28-0.772-0.643l-0.001-0.005c-0.037-0.187-0.080-0.373-0.131-0.557-0.205 0-0.416-0.016-0.611-0.032h-0.019c-0.422-0.024-0.756-0.372-0.756-0.799 0-0.015 0-0.031 0.001-0.046l-0 0.002c0.030-0.417 0.376-0.745 0.798-0.745 0.013 0 0.026 0 0.038 0.001l-0.002-0h0.045c0.194 0.019 0.418 0.031 0.646 0.031 0.045 0 0.090-0 0.135-0.001l-0.007 0c0.002 0 0.005-0 0.007-0 0.541 0 0.999 0.352 1.159 0.839l0.002 0.009c0.086 0.258 0.172 0.591 0.241 0.93l0.010 0.060c0.009 0.046 0.015 0.1 0.015 0.154 0 0.387-0.274 0.709-0.639 0.784l-0.005 0.001c-0.046 0.011-0.099 0.018-0.154 0.019h-0.001z"></path>
<path d="M14.488 12.824c-0 0-0 0-0 0-0.317 0-0.591-0.184-0.72-0.451l-0.002-0.005c-0.080-0.173-0.168-0.344-0.267-0.509-0.2 0.048-0.405 0.091-0.608 0.125-0.040 0.007-0.086 0.011-0.133 0.011-0.442 0-0.8-0.358-0.8-0.8 0-0.395 0.286-0.723 0.662-0.789l0.005-0.001c0.286-0.048 0.531-0.105 0.769-0.177l-0.044 0.011c0.1-0.030 0.214-0.047 0.332-0.047 0.435 0 0.815 0.23 1.027 0.575l0.003 0.005c0.154 0.247 0.317 0.545 0.463 0.852l0.025 0.057c0.049 0.101 0.078 0.219 0.078 0.344 0 0.317-0.184 0.591-0.452 0.72l-0.005 0.002c-0.098 0.047-0.212 0.074-0.333 0.075h-0zM13.355 11.605v0z"></path>
<path d="M15.136 9.227c-0.247-0-0.468-0.113-0.615-0.289l-0.001-0.001q-0.184-0.219-0.384-0.432c-0.181 0.101-0.365 0.197-0.549 0.283-0.101 0.050-0.22 0.079-0.346 0.079-0.442 0-0.8-0.358-0.8-0.8 0-0.323 0.191-0.601 0.467-0.727l0.005-0.002c0.261-0.121 0.476-0.239 0.684-0.37l-0.025 0.015c0.18-0.113 0.398-0.181 0.633-0.181 0.328 0 0.626 0.132 0.842 0.346l-0-0c0.245 0.24 0.476 0.491 0.694 0.754l0.013 0.016c0.114 0.137 0.183 0.315 0.183 0.509 0 0.441-0.358 0.799-0.799 0.8h-0z"></path>
<path d="M26.803 16.507c-0.002 0-0.004 0-0.006 0-0.109 0-0.212-0.023-0.306-0.063l0.005 0.002c-0.292-0.124-0.493-0.408-0.493-0.739 0-0.111 0.022-0.216 0.063-0.312l-0.002 0.005c0.077-0.187 0.165-0.376 0.267-0.56-0.152-0.12-0.309-0.235-0.467-0.341-0.215-0.146-0.355-0.39-0.355-0.667 0-0.444 0.36-0.803 0.803-0.803 0.167 0 0.322 0.051 0.451 0.138l-0.003-0.002c0.324 0.221 0.602 0.433 0.869 0.658l-0.016-0.013c0.259 0.225 0.421 0.555 0.421 0.923 0 0.218-0.057 0.423-0.158 0.601l0.003-0.006c-0.107 0.184-0.219 0.406-0.317 0.636l-0.016 0.041c-0.122 0.296-0.408 0.501-0.742 0.501-0.001 0-0.001 0-0.002 0h0zM26.573 15.043v0zM26.485 14.541v0z"></path>
<path d="M17.456 28.341c-0.003 0-0.006 0-0.009 0-0.093 0-0.181-0.017-0.263-0.047l0.005 0.002c-0.314-0.113-0.535-0.408-0.535-0.755 0-0.094 0.016-0.185 0.046-0.269l-0.002 0.006c0.138-0.399 0.28-0.73 0.443-1.049l-0.021 0.046c0.203-0.399 0.61-0.668 1.081-0.668 0.108 0 0.212 0.014 0.312 0.041l-0.008-0.002c0.201 0.057 0.46 0.114 0.724 0.157l0.044 0.006c0.386 0.062 0.677 0.392 0.677 0.791 0 0.442-0.358 0.8-0.8 0.8-0.043 0-0.086-0.003-0.127-0.010l0.005 0.001c-0.2-0.032-0.405-0.072-0.608-0.117-0.077 0.173-0.147 0.352-0.211 0.533-0.112 0.314-0.406 0.535-0.752 0.536h-0zM18.557 26.984v0z"></path>
<path d="M18.603 24.155c-0.177-0.001-0.34-0.059-0.471-0.156l0.002 0.002c-0.163-0.123-0.323-0.251-0.48-0.387-0.16 0.107-0.315 0.219-0.467 0.333-0.135 0.104-0.306 0.167-0.492 0.167-0.446 0-0.807-0.361-0.807-0.807 0-0.26 0.123-0.491 0.313-0.639l0.002-0.001c0.245-0.187 0.527-0.379 0.819-0.558l0.045-0.026c0.179-0.109 0.395-0.174 0.626-0.174 0.319 0 0.609 0.123 0.825 0.324l-0.001-0.001c0.174 0.164 0.36 0.322 0.554 0.47l0.017 0.012c0.195 0.148 0.32 0.379 0.32 0.64 0 0.442-0.358 0.8-0.8 0.8v0zM17.419 23.4v0z"></path>
<path d="M19.496 21.427c-0 0-0.001 0-0.001 0-0.33 0-0.614-0.2-0.736-0.485l-0.002-0.005-0.016-0.043c-0.075-0.163-0.152-0.349-0.224-0.533-0.189 0-0.381 0.035-0.568 0.061-0.047 0.010-0.1 0.015-0.155 0.015-0.442 0-0.8-0.358-0.8-0.8 0-0.416 0.317-0.758 0.723-0.796l0.003-0c0.295-0.047 0.649-0.081 1.008-0.095l0.018-0.001c0.011-0 0.024-0.001 0.037-0.001 0.523 0 0.97 0.329 1.144 0.792l0.003 0.008c0.093 0.292 0.183 0.527 0.285 0.756l-0.018-0.046 0.027 0.064c0.039 0.091 0.062 0.198 0.062 0.31 0 0.331-0.201 0.614-0.487 0.736l-0.005 0.002c-0.088 0.038-0.191 0.060-0.298 0.061h-0z"></path>
<path d="M21.424 18.891c-0.003 0-0.007 0-0.011 0-0.395 0-0.723-0.286-0.788-0.662l-0.001-0.005c-0.035-0.203-0.064-0.408-0.083-0.611q-0.267-0.051-0.568-0.080c-0.406-0.045-0.719-0.386-0.719-0.8 0-0.444 0.36-0.805 0.805-0.805 0.030 0 0.060 0.002 0.089 0.005l-0.004-0c0.398 0.043 0.746 0.1 1.087 0.175l-0.066-0.012c0.532 0.107 0.933 0.554 0.968 1.101l0 0.003c0.015 0.279 0.045 0.539 0.091 0.793l-0.006-0.038c0.007 0.040 0.011 0.087 0.011 0.134 0 0.394-0.285 0.721-0.66 0.788l-0.005 0.001c-0.042 0.008-0.091 0.013-0.141 0.013h-0z"></path>
<path d="M24.224 17.397h-0.080c-0.407-0.041-0.721-0.382-0.721-0.796 0-0.029 0.002-0.057 0.004-0.085l-0 0.003c0.019-0.2 0.048-0.405 0.085-0.611-0.176-0.080-0.355-0.152-0.533-0.219-0.308-0.116-0.523-0.408-0.523-0.751 0-0.442 0.358-0.8 0.8-0.8 0.1 0 0.195 0.018 0.283 0.051l-0.006-0.002c0.393 0.146 0.708 0.285 1.015 0.44l-0.058-0.026c0.401 0.203 0.671 0.612 0.671 1.084 0 0.088-0.009 0.174-0.027 0.257l0.001-0.008c-0.047 0.203-0.088 0.456-0.115 0.713l-0.002 0.029c-0.042 0.406-0.382 0.719-0.795 0.72h-0zM23.787 16.035v0z"></path>
<path d="M16 2.133c0.003 0 0.007 0 0.011 0 7.658 0 13.867 6.208 13.867 13.867 0 4.369-2.021 8.267-5.179 10.808l-0.027 0.021c-2.35 1.886-5.369 3.027-8.655 3.027-4.371 0-8.27-2.020-10.815-5.177l-0.021-0.027c-1.891-2.35-3.036-5.371-3.036-8.659 0-4.372 2.023-8.272 5.185-10.813l0.027-0.021c2.328-1.885 5.325-3.027 8.589-3.027 0.019 0 0.038 0 0.057 0h-0.003zM16 0c-8.833 0.005-15.992 7.166-15.992 16 0 8.837 7.163 16 16 16s16-7.163 16-16c0-3.793-1.32-7.278-3.526-10.020l0.024 0.031c-2.944-3.676-7.432-6.011-12.465-6.011-0.015 0-0.029 0-0.044 0h0.002z"></path>
</svg>
