<!-- Generated by IcoMoon.io -->
<svg version="1.1" xmlns="http://www.w3.org/2000/svg" width="32" height="32" viewBox="0 0 32 32">
<title>Iconos-app-codere-Expand_icon-callUs</title>
<path d="M23.493 32.027c-0.752-0.005-1.479-0.102-2.174-0.28l0.062 0.014c-5.277-1.288-10.456-6.933-12.437-9.283s-6.629-8.429-6.981-13.851c-0.171-2.6 0.8-5.133 2.613-6.771 1.29-1.163 3.006-1.874 4.889-1.874 0.465 0 0.92 0.043 1.362 0.127l-0.045-0.007c1.051 0.125 1.699 1.299 2.464 4.432 0.287 1.081 0.567 2.472 0.774 3.886l0.026 0.22v0.040c0.053 1.523-1.365 2.072-2.213 2.4-0.451 0.176-1.067 0.416-1.123 0.645-0.208 0.917 1.571 4.365 3.341 6.477v0c1.752 2.088 4.8 4.413 5.768 4.413h0.027c0.237 0 0.581-0.581 0.832-0.995 0.472-0.776 1.264-2.077 2.752-1.76h0.037c1.608 0.524 2.901 1.033 4.16 1.604l-0.253-0.103c2.949 1.296 4 2.133 3.933 3.2 0 0.014 0 0.031 0 0.047 0 2.331-1.091 4.407-2.79 5.746l-0.016 0.012c-1.355 1.035-3.073 1.659-4.936 1.659-0.025 0-0.050-0-0.076-0l0.004 0zM9.448 2.133c-0.018-0-0.039-0-0.061-0-1.303 0-2.49 0.498-3.381 1.313l0.004-0.003c-1.198 1.146-1.942 2.757-1.942 4.542 0 0.185 0.008 0.367 0.024 0.548l-0.002-0.023c0.312 4.8 4.64 10.424 6.488 12.627s6.645 7.443 11.309 8.581c1.904 0.464 3.891 0.088 5.309-1.013 1.183-0.924 1.945-2.341 1.973-3.937l0-0.005c-0.859-0.773-4.955-2.429-6.133-2.781-0.194 0.225-0.37 0.475-0.521 0.742l-0.012 0.023c-0.499 0.824-1.184 1.949-2.549 2.019h-0.109c-2.531 0-6.552-4.136-7.427-5.176v0c-0.888-1.067-4.349-5.867-3.787-8.323 0.304-1.333 1.533-1.811 2.429-2.16 0.324-0.111 0.604-0.243 0.865-0.4l-0.020 0.011c-0.139-1.211-1.067-5.544-1.672-6.523-0.234-0.036-0.507-0.058-0.784-0.061l-0.003-0z"></path>
</svg>
