<!-- Generated by IcoMoon.io -->
<svg version="1.1" xmlns="http://www.w3.org/2000/svg" width="32" height="32" viewBox="0 0 32 32">
<title>Iconos-app-codere-Expand_icon-Clock</title>
<path d="M23.901 17.173h-7.965c-0.589 0-1.067-0.477-1.067-1.067v-8.397c0-0.589 0.477-1.067 1.067-1.067s1.067 0.477 1.067 1.067v7.331h6.899c0.589 0 1.067 0.477 1.067 1.067s-0.477 1.067-1.067 1.067z"></path>
<path d="M15.939 2.133c7.645 0 13.864 6.221 13.864 13.869 0 7.645-6.219 13.864-13.864 13.864-7.648 0-13.869-6.219-13.869-13.864 0-7.648 6.221-13.869 13.869-13.869zM15.939 0c-8.843 0-16.003 7.168-16.003 16.003s7.168 15.997 16.003 15.997 15.997-7.155 15.997-15.997-7.16-16.003-15.997-16.003z"></path>
</svg>
