<!-- Generated by IcoMoon.io -->
<svg version="1.1" xmlns="http://www.w3.org/2000/svg" width="32" height="32" viewBox="0 0 32 32">
<title>Iconos-app-codere-Expand_icon-apuestas-84</title>
<path d="M18.645 14.725l12.323-7.792-10.4-6.525-11.797 7.565-7.669 4.733 10.4 6.525zM5.139 12.72l4.752-2.933h0.029l4.693-3.027 5.955-3.827 6.4 4-4.301 2.736-11.157 7.043z"></path>
<path d="M31.507 16.501c-0.191-0.306-0.526-0.507-0.908-0.507-0.207 0-0.4 0.059-0.563 0.16l0.005-0.003-1.211 0.744c-0.263-0.235-0.549-0.461-0.848-0.669l-0.029-0.019 3.2-1.955c0.308-0.191 0.511-0.527 0.511-0.911 0-0.589-0.478-1.067-1.067-1.067-0.206 0-0.398 0.058-0.561 0.159l0.005-0.003-4.267 2.6c-0.037 0.024-0.072 0.053-0.107 0.080-0.248-0.077-0.499-0.141-0.757-0.195l6.291-4.136c0.306-0.191 0.507-0.526 0.507-0.908 0-0.589-0.478-1.067-1.067-1.067-0.231 0-0.445 0.073-0.619 0.198l0.003-0.002-7.731 5.093c-0.253 0.17-0.427 0.44-0.466 0.752l-0.001 0.005c-2.116 0.36-3.927 1.463-5.19 3.027l-0.012 0.016c-0.043-0.006-0.093-0.010-0.143-0.010-0.202 0-0.391 0.057-0.552 0.156l0.005-0.003-4.403 2.667-9.621-6.6c-0.169-0.117-0.378-0.187-0.604-0.187-0.589 0-1.067 0.478-1.067 1.067 0 0.364 0.182 0.685 0.46 0.878l0.004 0.002 10.189 7.003c0.169 0.118 0.379 0.188 0.605 0.188 0.205 0 0.397-0.058 0.56-0.159l-0.005 0.003 2.968-1.808c-0.104 0.383-0.184 0.837-0.225 1.303l-0.002 0.030c-0.061 0.019-0.113 0.042-0.162 0.069l0.005-0.002-3.080 1.696-9.645-6.632c-0.174-0.128-0.392-0.205-0.629-0.205-0.589 0-1.067 0.478-1.067 1.067 0 0.374 0.192 0.703 0.483 0.893l0.004 0.003 10.189 7.005c0.169 0.118 0.379 0.188 0.605 0.188 0.189 0 0.366-0.049 0.52-0.135l-0.005 0.003 2.896-1.6c0.080 0.396 0.172 0.73 0.284 1.055l-0.017-0.058-3.621 2.133-9.643-6.632c-0.174-0.128-0.392-0.205-0.629-0.205-0.589 0-1.067 0.478-1.067 1.067 0 0.374 0.192 0.703 0.483 0.893l0.004 0.003 10.189 7.005c0.169 0.118 0.379 0.189 0.605 0.189h0c0.197-0.002 0.38-0.057 0.538-0.149l-0.005 0.003 4.037-2.371c1.518 2.391 4.152 3.955 7.151 3.955 4.663 0 8.443-3.78 8.443-8.443 0-1.749-0.532-3.373-1.442-4.721l0.019 0.030 0.915-0.563c0.309-0.191 0.511-0.527 0.511-0.911 0-0.206-0.058-0.398-0.159-0.561l0.003 0.005zM23.2 30.035c-0.003 0-0.006 0-0.009 0-3.782 0-6.848-3.066-6.848-6.848s3.066-6.848 6.848-6.848c0.932 0 1.82 0.186 2.63 0.523l-0.045-0.017c0.084 0.053 0.18 0.097 0.283 0.126l0.008 0.002c2.374 1.109 3.99 3.476 3.99 6.221 0 3.781-3.065 6.845-6.845 6.845-0.004 0-0.008 0-0.012 0h0.001z"></path>
<path d="M23.643 19.336c-0.097-0.142-0.259-0.234-0.441-0.234s-0.344 0.092-0.44 0.232l-0.001 0.002-2.733 3.413c-0.24 0.304-0.123 0.552 0.267 0.552h1.213c-0.013 0.049-0.021 0.105-0.021 0.163v2.565c0.002 0.389 0.317 0.704 0.707 0.704 0 0 0 0 0 0h2.019c0 0 0 0 0 0 0.389 0 0.705-0.315 0.707-0.704v-2.563c-0-0.058-0.008-0.114-0.022-0.167l0.001 0.005h1.213c0.389 0 0.509-0.248 0.267-0.552z"></path>
<path d="M19.152 9.776c0-1.403-1.421-2.541-3.173-2.541s-3.179 1.139-3.179 2.541 1.419 2.539 3.171 2.539 3.181-1.136 3.181-2.539zM15.979 10.715c-0.899 0-1.571-0.496-1.571-0.939s0.672-0.941 1.571-0.941 1.573 0.496 1.573 0.941-0.672 0.939-1.573 0.939z"></path>
</svg>
