<!-- Generated by IcoMoon.io -->
<svg version="1.1" xmlns="http://www.w3.org/2000/svg" width="32" height="32" viewBox="0 0 32 32">
<title>Iconos-app-codere-Expand_icon-charge-Cloud</title>
<path d="M10.981 29.907h-4.44c-1.404 0-2.541-1.138-2.541-2.541v0-3.296h8.085c0.442 0 0.8-0.358 0.8-0.8s-0.358-0.8-0.8-0.8v0h-8.085v-15.733h16.667v9.304c0 0.589 0.478 1.067 1.067 1.067s1.067-0.478 1.067-1.067v0-12.76c-0.002-1.783-1.446-3.229-3.229-3.232h-14.472c-1.784 0.002-3.23 1.448-3.232 3.232v24.085c0.002 2.58 2.092 4.672 4.672 4.675h4.443c0.589 0 1.067-0.478 1.067-1.067s-0.478-1.067-1.067-1.067v0zM5.099 2.181h14.472c0.606 0.002 1.096 0.493 1.096 1.099 0 0 0 0 0 0v0 1.867h-16.667v-1.867c0-0.607 0.492-1.099 1.099-1.099v0z"></path>
<path d="M28.579 22.563c-0.258-2.715-2.526-4.822-5.287-4.822-2.003 0-3.747 1.109-4.651 2.747l-0.014 0.027c-0.194-0.034-0.417-0.053-0.645-0.053h-0c-2.096 0.003-3.81 1.635-3.943 3.698l-0.001 0.012c-1.221 0.755-2.023 2.086-2.023 3.605 0 2.333 1.891 4.224 4.224 4.224 0.004 0 0.009 0 0.013-0h-0.001l11.261-0.051c0.016 0.001 0.035 0.002 0.053 0.002s0.037-0.001 0.056-0.002l-0.002 0c2.376-0.34 4.182-2.361 4.182-4.804 0-2.095-1.328-3.88-3.188-4.558l-0.034-0.011zM27.448 30.344l-11.2 0.051c-1.444-0.007-2.612-1.179-2.612-2.624 0-1.058 0.627-1.97 1.529-2.385l0.016-0.007c0.279-0.129 0.47-0.407 0.47-0.729 0-0.025-0.001-0.050-0.003-0.074l0 0.003c0-0.059 0-0.117 0-0.179 0.002-1.298 1.054-2.351 2.352-2.352h0c0.288 0.002 0.562 0.055 0.817 0.149l-0.017-0.005c0.082 0.031 0.177 0.049 0.276 0.049 0.34 0 0.63-0.212 0.746-0.51l0.002-0.005c0.547-1.41 1.894-2.392 3.469-2.392 2.049 0 3.71 1.66 3.712 3.709v0c0 0.029 0 0.059 0 0.088-0 0.005-0 0.012-0 0.018 0 0.382 0.268 0.702 0.627 0.781l0.005 0.001c1.491 0.315 2.595 1.621 2.595 3.184 0 1.629-1.198 2.978-2.761 3.214l-0.018 0.002z"></path>
</svg>
